<svg xmlns="http://www.w3.org/2000/svg" xmlns:xlink="http://www.w3.org/1999/xlink" viewBox="0 0 320.52 106.92"><defs><style>.cls-1,.cls-11,.cls-3,.cls-5,.cls-8{fill:none;}.cls-2{fill:#fff;}.cls-3{stroke:#fff;stroke-width:0.1px;}.cls-11,.cls-3,.cls-5{stroke-linecap:round;stroke-linejoin:round;}.cls-4,.cls-9{font-size:8px;}.cls-10,.cls-4,.cls-7,.cls-9{fill:#231815;}.cls-4{font-family:TimesNewRomanPSMT, Times New Roman;}.cls-11,.cls-5,.cls-8{stroke:#231815;}.cls-5,.cls-8{stroke-width:0.52px;}.cls-6{fill:#d4d4d5;}.cls-6,.cls-7{fill-rule:evenodd;}.cls-8{stroke-miterlimit:10;}.cls-10,.cls-9{font-family:TimesNewRomanPS-ItalicMT, Times New Roman;font-style:italic;}.cls-10{font-size:6px;}.cls-11{stroke-width:0.06px;}.cls-12{clip-path:url(#clip-path);}</style><clipPath id="clip-path"><rect class="cls-1" y="0.01" width="320.52" height="106.91"/></clipPath></defs><title>资源 1</title><g id="图层_2" data-name="图层 2"><g id="图层_1-2" data-name="图层 1"><rect class="cls-2" x="7.39" y="10.2" width="94.9" height="95.14"/><rect class="cls-3" x="7.39" y="10.2" width="94.9" height="95.14"/><text class="cls-4" transform="translate(1.18 6.65)">(a)</text><path class="cls-5" d="M102.29,105.34V10.2m-96.16,0H7.39M6.13,33.94H7.39M6.13,57.74H7.39M6.13,81.54H7.39m-1.26,23.8H7.39m0,0V10.2m0,0h94.9m0,96.46v-1.32m-23.74,1.32v-1.32m-23.68,1.32v-1.32m-23.74,1.32v-1.32M7.39,106.66v-1.32m0,0h94.9"/><path class="cls-6" d="M81,57.68A40.35,40.35,0,1,0,40.6,98.08,40.37,40.37,0,0,0,81,57.68"/><path class="cls-5" d="M81,57.68A40.35,40.35,0,1,0,40.6,98.08,40.37,40.37,0,0,0,81,57.68Z"/><path class="cls-6" d="M78.67,57.68A38.1,38.1,0,1,0,40.54,95.87,38.15,38.15,0,0,0,78.67,57.68"/><path class="cls-5" d="M78.67,57.68A38.1,38.1,0,1,0,40.54,95.87,38.15,38.15,0,0,0,78.67,57.68Z"/><path class="cls-6" d="M76.39,57.68A35.82,35.82,0,1,0,40.54,93.59,35.87,35.87,0,0,0,76.39,57.68"/><path class="cls-5" d="M76.39,57.68A35.82,35.82,0,1,0,40.54,93.59,35.87,35.87,0,0,0,76.39,57.68Z"/><path class="cls-6" d="M74.17,57.68A33.6,33.6,0,1,0,40.54,91.31,33.62,33.62,0,0,0,74.17,57.68"/><path class="cls-5" d="M74.17,57.68A33.6,33.6,0,1,0,40.54,91.31,33.62,33.62,0,0,0,74.17,57.68Z"/><path class="cls-6" d="M72,57.68A31.39,31.39,0,1,0,40.54,89.09,31.4,31.4,0,0,0,72,57.68"/><path class="cls-5" d="M72,57.68A31.39,31.39,0,1,0,40.54,89.09,31.4,31.4,0,0,0,72,57.68Z"/><path class="cls-6" d="M69.68,57.68A29.11,29.11,0,1,0,40.54,86.82,29.12,29.12,0,0,0,69.68,57.68"/><path class="cls-5" d="M69.68,57.68A29.11,29.11,0,1,0,40.54,86.82,29.12,29.12,0,0,0,69.68,57.68Z"/><path class="cls-6" d="M67.52,57.68a26.92,26.92,0,1,0-26.92,27,26.92,26.92,0,0,0,26.92-27"/><path class="cls-5" d="M67.52,57.68a26.92,26.92,0,1,0-26.92,27A26.92,26.92,0,0,0,67.52,57.68Z"/><path class="cls-6" d="M65.24,57.68A24.64,24.64,0,1,0,40.6,82.38a24.64,24.64,0,0,0,24.64-24.7"/><path class="cls-5" d="M65.24,57.68A24.64,24.64,0,1,0,40.6,82.38,24.64,24.64,0,0,0,65.24,57.68Z"/><path class="cls-6" d="M63,57.68A22.4,22.4,0,1,0,40.54,80.1,22.43,22.43,0,0,0,63,57.68"/><path class="cls-5" d="M63,57.68A22.4,22.4,0,1,0,40.54,80.1,22.43,22.43,0,0,0,63,57.68Z"/><path class="cls-6" d="M60.75,57.68a20.18,20.18,0,1,0-20.21,20.2,20.18,20.18,0,0,0,20.21-20.2"/><path class="cls-5" d="M60.75,57.68a20.18,20.18,0,1,0-20.21,20.2A20.18,20.18,0,0,0,60.75,57.68Z"/><path class="cls-6" d="M58.47,57.68A17.9,17.9,0,1,0,40.54,75.6,17.89,17.89,0,0,0,58.47,57.68"/><path class="cls-5" d="M58.47,57.68A17.9,17.9,0,1,0,40.54,75.6,17.89,17.89,0,0,0,58.47,57.68Z"/><path class="cls-6" d="M56.25,57.68A15.68,15.68,0,1,0,40.54,73.39,15.71,15.71,0,0,0,56.25,57.68"/><path class="cls-5" d="M56.25,57.68A15.68,15.68,0,1,0,40.54,73.39,15.71,15.71,0,0,0,56.25,57.68Z"/><path class="cls-6" d="M54,57.68A13.43,13.43,0,1,0,40.6,71.11,13.45,13.45,0,0,0,54,57.68"/><circle class="cls-5" cx="40.6" cy="57.68" r="13.43" transform="translate(-10.18 8.72) rotate(-10.9)"/><path class="cls-6" d="M51.75,57.68A11.18,11.18,0,1,0,40.54,68.89,11.19,11.19,0,0,0,51.75,57.68"/><path class="cls-5" d="M51.75,57.68A11.18,11.18,0,1,0,40.54,68.89,11.19,11.19,0,0,0,51.75,57.68Z"/><path class="cls-6" d="M49.48,57.68a8.91,8.91,0,1,0-8.94,8.93,8.92,8.92,0,0,0,8.94-8.93"/><path class="cls-5" d="M49.48,57.68a8.91,8.91,0,1,0-8.94,8.93A8.92,8.92,0,0,0,49.48,57.68Z"/><path class="cls-6" d="M47.26,57.68a6.69,6.69,0,1,0-6.72,6.71,6.65,6.65,0,0,0,6.72-6.71"/><path class="cls-5" d="M47.26,57.68a6.69,6.69,0,1,0-6.72,6.71A6.65,6.65,0,0,0,47.26,57.68Z"/><path class="cls-6" d="M45,57.68a4.48,4.48,0,0,0-4.5-4.44,4.43,4.43,0,0,0-4.43,4.44,4.48,4.48,0,0,0,4.43,4.5,4.53,4.53,0,0,0,4.5-4.5"/><path class="cls-5" d="M45,57.68a4.48,4.48,0,0,0-4.5-4.44,4.43,4.43,0,0,0-4.43,4.44,4.48,4.48,0,0,0,4.43,4.5A4.53,4.53,0,0,0,45,57.68Z"/><path class="cls-6" d="M42.76,57.68a2.2,2.2,0,0,0-2.22-2.16,2.15,2.15,0,0,0-2.15,2.16,2.2,2.2,0,0,0,2.15,2.22,2.25,2.25,0,0,0,2.22-2.22"/><path class="cls-5" d="M42.76,57.68a2.2,2.2,0,0,0-2.22-2.16,2.15,2.15,0,0,0-2.15,2.16,2.2,2.2,0,0,0,2.15,2.22A2.25,2.25,0,0,0,42.76,57.68Z"/><path class="cls-7" d="M37.55,42.69a1,1,0,0,0-1-1,1,1,0,0,0-1,1,1,1,0,0,0,1,1,1.05,1.05,0,0,0,1-1"/><path class="cls-5" d="M37.55,42.69a1,1,0,0,0-1-1,1,1,0,0,0-1,1,1,1,0,0,0,1,1A1.05,1.05,0,0,0,37.55,42.69Z"/><path class="cls-7" d="M85.93,70.39a1,1,0,0,0-1-1,1,1,0,0,0-1,1,1,1,0,0,0,1,1,1.05,1.05,0,0,0,1-1"/><path class="cls-5" d="M85.93,70.39a1,1,0,0,0-1-1,1,1,0,0,0-1,1,1,1,0,0,0,1,1A1.05,1.05,0,0,0,85.93,70.39Z"/><path class="cls-7" d="M52.41,32.32a1,1,0,0,0-1-1,1,1,0,0,0-1,1,1,1,0,0,0,1,1,1.05,1.05,0,0,0,1-1"/><path class="cls-5" d="M52.41,32.32a1,1,0,0,0-1-1,1,1,0,0,0-1,1,1,1,0,0,0,1,1A1.05,1.05,0,0,0,52.41,32.32Z"/><path class="cls-7" d="M86,30.58a1,1,0,0,0-1-1,1,1,0,0,0-1,1,1,1,0,0,0,1,1,1,1,0,0,0,1-1"/><path class="cls-5" d="M86,30.58a1,1,0,0,0-1-1,1,1,0,0,0-1,1,1,1,0,0,0,1,1A1,1,0,0,0,86,30.58Z"/><path class="cls-7" d="M89.1,103.42a1,1,0,0,0-1-1,1,1,0,0,0-1,1,1,1,0,0,0,1,1,1.05,1.05,0,0,0,1-1"/><path class="cls-5" d="M89.1,103.42a1,1,0,0,0-1-1,1,1,0,0,0-1,1,1,1,0,0,0,1,1A1.05,1.05,0,0,0,89.1,103.42Z"/><path class="cls-7" d="M76,67.27a1,1,0,0,0-1-1,1,1,0,0,0-1,1,1,1,0,0,0,1,1,1.05,1.05,0,0,0,1-1"/><path class="cls-5" d="M76,67.27a1,1,0,0,0-1-1,1,1,0,0,0-1,1,1,1,0,0,0,1,1A1.05,1.05,0,0,0,76,67.27Z"/><path class="cls-7" d="M71.9,105.1a1,1,0,0,0-1-1,1,1,0,0,0-1,1,1,1,0,0,0,1,1,1.05,1.05,0,0,0,1-1"/><path class="cls-5" d="M71.9,105.1a1,1,0,0,0-1-1,1,1,0,0,0-1,1,1,1,0,0,0,1,1A1.05,1.05,0,0,0,71.9,105.1Z"/><path class="cls-7" d="M74.89,75.18a1,1,0,0,0-1-1,.94.94,0,0,0-1,1,1,1,0,0,0,1,1,1.05,1.05,0,0,0,1-1"/><path class="cls-5" d="M74.89,75.18a1,1,0,0,0-1-1,.94.94,0,0,0-1,1,1,1,0,0,0,1,1A1.05,1.05,0,0,0,74.89,75.18Z"/><path class="cls-7" d="M75.07,30.94a1,1,0,0,0-1-1,1,1,0,0,0-1,1,1,1,0,0,0,1,1,1.05,1.05,0,0,0,1-1"/><path class="cls-5" d="M75.07,30.94a1,1,0,0,0-1-1,1,1,0,0,0-1,1,1,1,0,0,0,1,1A1.05,1.05,0,0,0,75.07,30.94Z"/><path class="cls-7" d="M87.9,96.58a1,1,0,0,0-1-1,1,1,0,0,0-1,1,1,1,0,0,0,1,1,1,1,0,0,0,1-1"/><path class="cls-5" d="M87.9,96.58a1,1,0,0,0-1-1,1,1,0,0,0-1,1,1,1,0,0,0,1,1A1,1,0,0,0,87.9,96.58Z"/><path class="cls-7" d="M57.69,62.42a1,1,0,0,0-1-1,1,1,0,0,0-1,1,1,1,0,0,0,1,1,1,1,0,0,0,1-1"/><path class="cls-5" d="M57.69,62.42a1,1,0,0,0-1-1,1,1,0,0,0-1,1,1,1,0,0,0,1,1A1,1,0,0,0,57.69,62.42Z"/><path class="cls-7" d="M23.82,61.16a1,1,0,0,0-1-1,1,1,0,0,0-1,1,1,1,0,0,0,1,1,1.05,1.05,0,0,0,1-1"/><path class="cls-5" d="M23.82,61.16a1,1,0,0,0-1-1,1,1,0,0,0-1,1,1,1,0,0,0,1,1A1.05,1.05,0,0,0,23.82,61.16Z"/><path class="cls-7" d="M29.33,44.07a1,1,0,0,0-1-1,1,1,0,0,0-1,1,1,1,0,0,0,1,1,1.05,1.05,0,0,0,1-1"/><path class="cls-5" d="M29.33,44.07a1,1,0,0,0-1-1,1,1,0,0,0-1,1,1,1,0,0,0,1,1A1.05,1.05,0,0,0,29.33,44.07Z"/><path class="cls-7" d="M46,19.25a1,1,0,0,0-1-1,1,1,0,0,0-1,1,1,1,0,0,0,1,1,1.05,1.05,0,0,0,1-1"/><path class="cls-5" d="M46,19.25a1,1,0,0,0-1-1,1,1,0,0,0-1,1,1,1,0,0,0,1,1A1.05,1.05,0,0,0,46,19.25Z"/><path class="cls-7" d="M83.23,74.46a1,1,0,0,0-1-.95,1,1,0,0,0-1,.95,1,1,0,0,0,1,1,1.05,1.05,0,0,0,1-1"/><path class="cls-5" d="M83.23,74.46a1,1,0,0,0-1-.95,1,1,0,0,0-1,.95,1,1,0,0,0,1,1A1.05,1.05,0,0,0,83.23,74.46Z"/><path class="cls-7" d="M10.51,71.23a1,1,0,0,0-1-1,1,1,0,0,0-1,1,1,1,0,0,0,1,1,1.05,1.05,0,0,0,1-1"/><path class="cls-5" d="M10.51,71.23a1,1,0,0,0-1-1,1,1,0,0,0-1,1,1,1,0,0,0,1,1A1.05,1.05,0,0,0,10.51,71.23Z"/><path class="cls-7" d="M79.15,91.85a1,1,0,0,0-1-1,1,1,0,0,0-1,1,1,1,0,0,0,1,1,1.05,1.05,0,0,0,1-1"/><path class="cls-5" d="M79.15,91.85a1,1,0,0,0-1-1,1,1,0,0,0-1,1,1,1,0,0,0,1,1A1.05,1.05,0,0,0,79.15,91.85Z"/><path class="cls-7" d="M90.6,19.49a1,1,0,0,0-1-1,1,1,0,0,0-1,1,1,1,0,0,0,1,1,1.05,1.05,0,0,0,1-1"/><path class="cls-5" d="M90.6,19.49a1,1,0,0,0-1-1,1,1,0,0,0-1,1,1,1,0,0,0,1,1A1.05,1.05,0,0,0,90.6,19.49Z"/><path class="cls-7" d="M51.81,12.36a1,1,0,0,0-1-1,1,1,0,0,0-1,1,1,1,0,0,0,1,1,1.05,1.05,0,0,0,1-1"/><path class="cls-5" d="M51.81,12.36a1,1,0,0,0-1-1,1,1,0,0,0-1,1,1,1,0,0,0,1,1A1.05,1.05,0,0,0,51.81,12.36Z"/><path class="cls-7" d="M85.39,84a1,1,0,0,0-1-1,1,1,0,0,0-1,1,1,1,0,0,0,1,1,1,1,0,0,0,1-1"/><path class="cls-5" d="M85.39,84a1,1,0,0,0-1-1,1,1,0,0,0-1,1,1,1,0,0,0,1,1A1,1,0,0,0,85.39,84Z"/><path class="cls-7" d="M57.27,50.91a1,1,0,0,0-1-1,1,1,0,0,0-1,1,1,1,0,0,0,1,1,1.05,1.05,0,0,0,1-1"/><path class="cls-5" d="M57.27,50.91a1,1,0,0,0-1-1,1,1,0,0,0-1,1,1,1,0,0,0,1,1A1.05,1.05,0,0,0,57.27,50.91Z"/><path class="cls-7" d="M99.83,30.16a1,1,0,0,0-1-1,1,1,0,0,0-1,1,1,1,0,0,0,1,1,1.05,1.05,0,0,0,1-1"/><path class="cls-5" d="M99.83,30.16a1,1,0,0,0-1-1,1,1,0,0,0-1,1,1,1,0,0,0,1,1A1.05,1.05,0,0,0,99.83,30.16Z"/><path class="cls-7" d="M42,73a1,1,0,0,0-1-1,1,1,0,0,0-1,1,1,1,0,0,0,1,1,1.05,1.05,0,0,0,1-1"/><path class="cls-5" d="M42,73a1,1,0,0,0-1-1,1,1,0,0,0-1,1,1,1,0,0,0,1,1A1.05,1.05,0,0,0,42,73Z"/><path class="cls-7" d="M37.85,10.86a1,1,0,0,0-1-1,1,1,0,0,0-1,1,1,1,0,0,0,1,1,1.05,1.05,0,0,0,1-1"/><path class="cls-5" d="M37.85,10.86a1,1,0,0,0-1-1,1,1,0,0,0-1,1,1,1,0,0,0,1,1A1.05,1.05,0,0,0,37.85,10.86Z"/><path class="cls-7" d="M9.43,30.94a1,1,0,0,0-1-1,1,1,0,0,0-1,1,1,1,0,0,0,1,1,1.05,1.05,0,0,0,1-1"/><path class="cls-5" d="M9.43,30.94a1,1,0,0,0-1-1,1,1,0,0,0-1,1,1,1,0,0,0,1,1A1.05,1.05,0,0,0,9.43,30.94Z"/><path class="cls-7" d="M67.22,17.75a1,1,0,0,0-1-1,1,1,0,0,0-1,1,1,1,0,0,0,1,1,1.05,1.05,0,0,0,1-1"/><path class="cls-5" d="M67.22,17.75a1,1,0,0,0-1-1,1,1,0,0,0-1,1,1,1,0,0,0,1,1A1.05,1.05,0,0,0,67.22,17.75Z"/><path class="cls-7" d="M93.48,89.33a1,1,0,0,0-1-1,1,1,0,0,0-1,1,1,1,0,0,0,1,1,1.05,1.05,0,0,0,1-1"/><path class="cls-5" d="M93.48,89.33a1,1,0,0,0-1-1,1,1,0,0,0-1,1,1,1,0,0,0,1,1A1.05,1.05,0,0,0,93.48,89.33Z"/><path class="cls-7" d="M11.29,81.06a1,1,0,0,0-1-1,1,1,0,0,0-1,1,1,1,0,0,0,1,1,1.05,1.05,0,0,0,1-1"/><path class="cls-5" d="M11.29,81.06a1,1,0,0,0-1-1,1,1,0,0,0-1,1,1,1,0,0,0,1,1A1.05,1.05,0,0,0,11.29,81.06Z"/><path class="cls-7" d="M53.37,95.15a1,1,0,0,0-1-1,1,1,0,0,0-1,1,1,1,0,0,0,1,1,1.05,1.05,0,0,0,1-1"/><path class="cls-5" d="M53.37,95.15a1,1,0,0,0-1-1,1,1,0,0,0-1,1,1,1,0,0,0,1,1A1.05,1.05,0,0,0,53.37,95.15Z"/><path class="cls-7" d="M78.19,85.44a1,1,0,0,0-1-1,1,1,0,0,0-1,1,1,1,0,0,0,1,1,1.05,1.05,0,0,0,1-1"/><path class="cls-5" d="M78.19,85.44a1,1,0,0,0-1-1,1,1,0,0,0-1,1,1,1,0,0,0,1,1A1.05,1.05,0,0,0,78.19,85.44Z"/><path class="cls-7" d="M33.05,65.53a1,1,0,0,0-1-1,1,1,0,0,0-1,1,1,1,0,0,0,1,1,1.05,1.05,0,0,0,1-1"/><path class="cls-5" d="M33.05,65.53a1,1,0,0,0-1-1,1,1,0,0,0-1,1,1,1,0,0,0,1,1A1.05,1.05,0,0,0,33.05,65.53Z"/><path class="cls-7" d="M75.37,95.69a1,1,0,0,0-1-1,1,1,0,0,0-1,1,1,1,0,0,0,1,1,1.05,1.05,0,0,0,1-1"/><path class="cls-5" d="M75.37,95.69a1,1,0,0,0-1-1,1,1,0,0,0-1,1,1,1,0,0,0,1,1A1.05,1.05,0,0,0,75.37,95.69Z"/><path class="cls-7" d="M47.44,78.06a1,1,0,0,0-1-1,1,1,0,0,0-1,1,1,1,0,0,0,1,1,1.05,1.05,0,0,0,1-1"/><path class="cls-5" d="M47.44,78.06a1,1,0,0,0-1-1,1,1,0,0,0-1,1,1,1,0,0,0,1,1A1.05,1.05,0,0,0,47.44,78.06Z"/><path class="cls-7" d="M69.5,22.43a1,1,0,0,0-1-1,1,1,0,0,0-1,1,1,1,0,0,0,1,1,1.05,1.05,0,0,0,1-1"/><path class="cls-5" d="M69.5,22.43a1,1,0,0,0-1-1,1,1,0,0,0-1,1,1,1,0,0,0,1,1A1.05,1.05,0,0,0,69.5,22.43Z"/><path class="cls-7" d="M43.9,50a1,1,0,0,0-1-1,1,1,0,0,0-1,1,1,1,0,0,0,1,1,1.05,1.05,0,0,0,1-1"/><path class="cls-5" d="M43.9,50a1,1,0,0,0-1-1,1,1,0,0,0-1,1,1,1,0,0,0,1,1A1.05,1.05,0,0,0,43.9,50Z"/><path class="cls-7" d="M48.58,29.21a1,1,0,0,0-1-1,1,1,0,0,0-1,1,1,1,0,0,0,1,1,1,1,0,0,0,1-1"/><path class="cls-5" d="M48.58,29.21a1,1,0,0,0-1-1,1,1,0,0,0-1,1,1,1,0,0,0,1,1A1,1,0,0,0,48.58,29.21Z"/><path class="cls-7" d="M76.21,77.64a1,1,0,0,0-1-1,1,1,0,0,0-1,1,1,1,0,0,0,1,1,1.05,1.05,0,0,0,1-1"/><path class="cls-5" d="M76.21,77.64a1,1,0,0,0-1-1,1,1,0,0,0-1,1,1,1,0,0,0,1,1A1.05,1.05,0,0,0,76.21,77.64Z"/><path class="cls-7" d="M70,103.18a1,1,0,0,0-1-1,1,1,0,0,0-1,1,1,1,0,0,0,1,1,1.05,1.05,0,0,0,1-1"/><path class="cls-5" d="M70,103.18a1,1,0,0,0-1-1,1,1,0,0,0-1,1,1,1,0,0,0,1,1A1.05,1.05,0,0,0,70,103.18Z"/><path class="cls-7" d="M64.4,86a1,1,0,0,0-1-1,1,1,0,0,0-1,1,1,1,0,0,0,1,1,1.06,1.06,0,0,0,1-1"/><path class="cls-5" d="M64.4,86a1,1,0,0,0-1-1,1,1,0,0,0-1,1,1,1,0,0,0,1,1A1.06,1.06,0,0,0,64.4,86Z"/><path class="cls-7" d="M69.56,38.26a1,1,0,0,0-1-1,1,1,0,0,0-1,1,1,1,0,0,0,1,1,1.05,1.05,0,0,0,1-1"/><path class="cls-5" d="M69.56,38.26a1,1,0,0,0-1-1,1,1,0,0,0-1,1,1,1,0,0,0,1,1A1.05,1.05,0,0,0,69.56,38.26Z"/><path class="cls-7" d="M33.05,68.65a1,1,0,0,0-1-1,1,1,0,0,0-1,1,1,1,0,0,0,1,1,1.05,1.05,0,0,0,1-1"/><path class="cls-5" d="M33.05,68.65a1,1,0,0,0-1-1,1,1,0,0,0-1,1,1,1,0,0,0,1,1A1.05,1.05,0,0,0,33.05,68.65Z"/><path class="cls-7" d="M67.46,58.64a1,1,0,0,0-1-1,1,1,0,0,0-1,1,1,1,0,0,0,1,1,1.05,1.05,0,0,0,1-1"/><path class="cls-5" d="M67.46,58.64a1,1,0,0,0-1-1,1,1,0,0,0-1,1,1,1,0,0,0,1,1A1.05,1.05,0,0,0,67.46,58.64Z"/><path class="cls-7" d="M68.54,14.58a1,1,0,0,0-1-1,1,1,0,0,0-1,1,1,1,0,0,0,1,1,1.05,1.05,0,0,0,1-1"/><path class="cls-5" d="M68.54,14.58a1,1,0,0,0-1-1,1,1,0,0,0-1,1,1,1,0,0,0,1,1A1.05,1.05,0,0,0,68.54,14.58Z"/><path class="cls-7" d="M22.32,87.35a1,1,0,0,0-1-1,1,1,0,0,0-1,1,1,1,0,0,0,1,1,1.05,1.05,0,0,0,1-1"/><path class="cls-5" d="M22.32,87.35a1,1,0,0,0-1-1,1,1,0,0,0-1,1,1,1,0,0,0,1,1A1.05,1.05,0,0,0,22.32,87.35Z"/><path class="cls-7" d="M69.74,70.39a1,1,0,0,0-1-1,1,1,0,0,0-1,1,1,1,0,0,0,1,1,1.05,1.05,0,0,0,1-1"/><path class="cls-5" d="M69.74,70.39a1,1,0,0,0-1-1,1,1,0,0,0-1,1,1,1,0,0,0,1,1A1.05,1.05,0,0,0,69.74,70.39Z"/><path class="cls-7" d="M52.77,31.42a1,1,0,0,0-1-1,1,1,0,0,0-1,1,1,1,0,0,0,1,1,1.05,1.05,0,0,0,1-1"/><path class="cls-5" d="M52.77,31.42a1,1,0,0,0-1-1,1,1,0,0,0-1,1,1,1,0,0,0,1,1A1.05,1.05,0,0,0,52.77,31.42Z"/><path class="cls-7" d="M52.53,92.57a1,1,0,0,0-1-1,1,1,0,0,0-1,1,1,1,0,0,0,1,1,1.05,1.05,0,0,0,1-1"/><path class="cls-5" d="M52.53,92.57a1,1,0,0,0-1-1,1,1,0,0,0-1,1,1,1,0,0,0,1,1A1.05,1.05,0,0,0,52.53,92.57Z"/><path class="cls-7" d="M9.07,101.38a1,1,0,0,0-1-1,1,1,0,0,0-1,1,1,1,0,0,0,1,1,1.05,1.05,0,0,0,1-1"/><path class="cls-5" d="M9.07,101.38a1,1,0,0,0-1-1,1,1,0,0,0-1,1,1,1,0,0,0,1,1A1.05,1.05,0,0,0,9.07,101.38Z"/><path class="cls-7" d="M71.24,44.31a1,1,0,0,0-1-1,1,1,0,0,0-1,1,1,1,0,0,0,1,1,1.05,1.05,0,0,0,1-1"/><path class="cls-5" d="M71.24,44.31a1,1,0,0,0-1-1,1,1,0,0,0-1,1,1,1,0,0,0,1,1A1.05,1.05,0,0,0,71.24,44.31Z"/><path class="cls-7" d="M54.93,32.44a1,1,0,0,0-1-1,1,1,0,0,0-1,1,1,1,0,0,0,1,1,1.05,1.05,0,0,0,1-1"/><path class="cls-5" d="M54.93,32.44a1,1,0,0,0-1-1,1,1,0,0,0-1,1,1,1,0,0,0,1,1A1.05,1.05,0,0,0,54.93,32.44Z"/><path class="cls-7" d="M97,96.41a1,1,0,0,0-1-1,1,1,0,0,0-1,1,1,1,0,0,0,1,1,1,1,0,0,0,1-1"/><path class="cls-5" d="M97,96.41a1,1,0,0,0-1-1,1,1,0,0,0-1,1,1,1,0,0,0,1,1A1,1,0,0,0,97,96.41Z"/><path class="cls-7" d="M90.24,75a1,1,0,0,0-1-1,1,1,0,0,0-1,1,1,1,0,0,0,1,1,1.05,1.05,0,0,0,1-1"/><circle class="cls-5" cx="89.22" cy="75" r="1.02"/><path class="cls-7" d="M91.26,13.38a1,1,0,0,0-1-1,1,1,0,0,0-1,1,1,1,0,0,0,1,1,1.05,1.05,0,0,0,1-1"/><path class="cls-5" d="M91.26,13.38a1,1,0,0,0-1-1,1,1,0,0,0-1,1,1,1,0,0,0,1,1A1.05,1.05,0,0,0,91.26,13.38Z"/><path class="cls-7" d="M101.39,74a1,1,0,0,0-1-1,1,1,0,0,0-1,1,1,1,0,0,0,1,1,1.05,1.05,0,0,0,1-1"/><path class="cls-5" d="M101.39,74a1,1,0,0,0-1-1,1,1,0,0,0-1,1,1,1,0,0,0,1,1A1.05,1.05,0,0,0,101.39,74Z"/><path class="cls-7" d="M27.24,28.37a1,1,0,0,0-1-1,1,1,0,0,0-1,1,1,1,0,0,0,1,1,1.06,1.06,0,0,0,1-1"/><path class="cls-5" d="M27.24,28.37a1,1,0,0,0-1-1,1,1,0,0,0-1,1,1,1,0,0,0,1,1A1.06,1.06,0,0,0,27.24,28.37Z"/><path class="cls-7" d="M25.8,105a1,1,0,0,0-1-1,1,1,0,0,0-1,1,1,1,0,0,0,1,1,1.05,1.05,0,0,0,1-1"/><path class="cls-5" d="M25.8,105a1,1,0,0,0-1-1,1,1,0,0,0-1,1,1,1,0,0,0,1,1A1.05,1.05,0,0,0,25.8,105Z"/><path class="cls-7" d="M53.61,82.08a1,1,0,0,0-1-1,1,1,0,0,0-1,1,1,1,0,0,0,1,1,1.05,1.05,0,0,0,1-1"/><path class="cls-5" d="M53.61,82.08a1,1,0,0,0-1-1,1,1,0,0,0-1,1,1,1,0,0,0,1,1A1.05,1.05,0,0,0,53.61,82.08Z"/><path class="cls-7" d="M33.23,11.1a1,1,0,0,0-1-1,1,1,0,0,0-1,1,1,1,0,0,0,1,1,1.05,1.05,0,0,0,1-1"/><path class="cls-5" d="M33.23,11.1a1,1,0,0,0-1-1,1,1,0,0,0-1,1,1,1,0,0,0,1,1A1.05,1.05,0,0,0,33.23,11.1Z"/><path class="cls-7" d="M86.64,34.3a1,1,0,0,0-1-1,1,1,0,0,0-1,1,1,1,0,0,0,1,1,1.05,1.05,0,0,0,1-1"/><path class="cls-5" d="M86.64,34.3a1,1,0,0,0-1-1,1,1,0,0,0-1,1,1,1,0,0,0,1,1A1.05,1.05,0,0,0,86.64,34.3Z"/><path class="cls-7" d="M91.44,50.91a1,1,0,0,0-1-1,1,1,0,0,0-1,1,1,1,0,0,0,1,1,1.05,1.05,0,0,0,1-1"/><path class="cls-5" d="M91.44,50.91a1,1,0,0,0-1-1,1,1,0,0,0-1,1,1,1,0,0,0,1,1A1.05,1.05,0,0,0,91.44,50.91Z"/><path class="cls-7" d="M27,104.44a1,1,0,0,0-1-1,1,1,0,0,0-1,1,1,1,0,0,0,1,1,1.05,1.05,0,0,0,1-1"/><path class="cls-5" d="M27,104.44a1,1,0,0,0-1-1,1,1,0,0,0-1,1,1,1,0,0,0,1,1A1.05,1.05,0,0,0,27,104.44Z"/><path class="cls-7" d="M20.22,98a1,1,0,0,0-1-1,1,1,0,0,0-1,1,1,1,0,0,0,1,1,1,1,0,0,0,1-1"/><path class="cls-5" d="M20.22,98a1,1,0,0,0-1-1,1,1,0,0,0-1,1,1,1,0,0,0,1,1A1,1,0,0,0,20.22,98Z"/><path class="cls-7" d="M18.54,63.25a1,1,0,0,0-1-1,1,1,0,0,0-.95,1,1,1,0,0,0,.95,1,1.05,1.05,0,0,0,1-1"/><path class="cls-5" d="M18.54,63.25a1,1,0,0,0-1-1,1,1,0,0,0-.95,1,1,1,0,0,0,.95,1A1.05,1.05,0,0,0,18.54,63.25Z"/><path class="cls-7" d="M101.21,67.27a1,1,0,0,0-1-1,1,1,0,0,0-1,1,1,1,0,0,0,1,1,1.05,1.05,0,0,0,1-1"/><path class="cls-5" d="M101.21,67.27a1,1,0,0,0-1-1,1,1,0,0,0-1,1,1,1,0,0,0,1,1A1.05,1.05,0,0,0,101.21,67.27Z"/><path class="cls-7" d="M68.18,64.51a1,1,0,0,0-1-1,1,1,0,0,0-1,1,1,1,0,0,0,1,1,1.05,1.05,0,0,0,1-1"/><path class="cls-5" d="M68.18,64.51a1,1,0,0,0-1-1,1,1,0,0,0-1,1,1,1,0,0,0,1,1A1.05,1.05,0,0,0,68.18,64.51Z"/><path class="cls-7" d="M66.8,64.63a1,1,0,0,0-1-1,1,1,0,0,0-1,1,1,1,0,0,0,1,1,1.05,1.05,0,0,0,1-1"/><path class="cls-5" d="M66.8,64.63a1,1,0,0,0-1-1,1,1,0,0,0-1,1,1,1,0,0,0,1,1A1.05,1.05,0,0,0,66.8,64.63Z"/><path class="cls-7" d="M65.72,42.39a1,1,0,0,0-1-1,1,1,0,0,0-1,1,1,1,0,0,0,1,1,1.05,1.05,0,0,0,1-1"/><path class="cls-5" d="M65.72,42.39a1,1,0,0,0-1-1,1,1,0,0,0-1,1,1,1,0,0,0,1,1A1.05,1.05,0,0,0,65.72,42.39Z"/><path class="cls-7" d="M69.08,28.84a1,1,0,0,0-1-1,1,1,0,0,0-1,1,1,1,0,0,0,1,1,1,1,0,0,0,1-1"/><path class="cls-5" d="M69.08,28.84a1,1,0,0,0-1-1,1,1,0,0,0-1,1,1,1,0,0,0,1,1A1,1,0,0,0,69.08,28.84Z"/><path class="cls-7" d="M66.92,64.51a1,1,0,0,0-1-1,1,1,0,0,0-1,1,1,1,0,0,0,1,1,1.05,1.05,0,0,0,1-1"/><path class="cls-5" d="M66.92,64.51a1,1,0,0,0-1-1,1,1,0,0,0-1,1,1,1,0,0,0,1,1A1.05,1.05,0,0,0,66.92,64.51Z"/><path class="cls-7" d="M21.18,32.2a1,1,0,0,0-1-1,1,1,0,0,0-1,1,1,1,0,0,0,1,1,1.05,1.05,0,0,0,1-1"/><path class="cls-5" d="M21.18,32.2a1,1,0,0,0-1-1,1,1,0,0,0-1,1,1,1,0,0,0,1,1A1.05,1.05,0,0,0,21.18,32.2Z"/><path class="cls-7" d="M78.79,105.16a1,1,0,0,0-1-1,1,1,0,0,0-1,1,1,1,0,0,0,1,1,1.05,1.05,0,0,0,1-1"/><path class="cls-5" d="M78.79,105.16a1,1,0,0,0-1-1,1,1,0,0,0-1,1,1,1,0,0,0,1,1A1.05,1.05,0,0,0,78.79,105.16Z"/><path class="cls-7" d="M46,104.86a1,1,0,0,0-1-1,1,1,0,0,0-1,1,1,1,0,0,0,1,1,1.05,1.05,0,0,0,1-1"/><path class="cls-5" d="M46,104.86a1,1,0,0,0-1-1,1,1,0,0,0-1,1,1,1,0,0,0,1,1A1.05,1.05,0,0,0,46,104.86Z"/><path class="cls-7" d="M45.76,64a1,1,0,0,0-1-1,1,1,0,0,0-1,1,1,1,0,0,0,1,1,1.05,1.05,0,0,0,1-1"/><path class="cls-5" d="M45.76,64a1,1,0,0,0-1-1,1,1,0,0,0-1,1,1,1,0,0,0,1,1A1.05,1.05,0,0,0,45.76,64Z"/><path class="cls-7" d="M12.49,25.13a1,1,0,0,0-1-1,1,1,0,0,0-1,1,1,1,0,0,0,1,1,1.05,1.05,0,0,0,1-1"/><path class="cls-5" d="M12.49,25.13a1,1,0,0,0-1-1,1,1,0,0,0-1,1,1,1,0,0,0,1,1A1.05,1.05,0,0,0,12.49,25.13Z"/><path class="cls-7" d="M37.43,41.43a1,1,0,0,0-1-1,1,1,0,0,0-1,1,1,1,0,0,0,1,1,1.05,1.05,0,0,0,1-1"/><path class="cls-5" d="M37.43,41.43a1,1,0,0,0-1-1,1,1,0,0,0-1,1,1,1,0,0,0,1,1A1.05,1.05,0,0,0,37.43,41.43Z"/><path class="cls-7" d="M54.63,27.65a1,1,0,0,0-1-1,1,1,0,0,0-1,1,1,1,0,0,0,1,1,1,1,0,0,0,1-1"/><path class="cls-5" d="M54.63,27.65a1,1,0,0,0-1-1,1,1,0,0,0-1,1,1,1,0,0,0,1,1A1,1,0,0,0,54.63,27.65Z"/><path class="cls-7" d="M85.32,16.2a1,1,0,0,0-1-1,1,1,0,0,0-1,1,1,1,0,0,0,1,1,1,1,0,0,0,1-1"/><path class="cls-5" d="M85.32,16.2a1,1,0,0,0-1-1,1,1,0,0,0-1,1,1,1,0,0,0,1,1A1,1,0,0,0,85.32,16.2Z"/><path class="cls-7" d="M100.37,102.46a1,1,0,0,0-1-1,1,1,0,0,0-1,1,1,1,0,0,0,1,1,1.05,1.05,0,0,0,1-1"/><path class="cls-5" d="M100.37,102.46a1,1,0,0,0-1-1,1,1,0,0,0-1,1,1,1,0,0,0,1,1A1.05,1.05,0,0,0,100.37,102.46Z"/><path class="cls-7" d="M41.32,12.78a1,1,0,0,0-1-1,1,1,0,0,0-1,1,1,1,0,0,0,1,1,1.05,1.05,0,0,0,1-1"/><path class="cls-5" d="M41.32,12.78a1,1,0,0,0-1-1,1,1,0,0,0-1,1,1,1,0,0,0,1,1A1.05,1.05,0,0,0,41.32,12.78Z"/><path class="cls-7" d="M44,85.2a1,1,0,0,0-1-1,1,1,0,0,0-1,1,1,1,0,0,0,1,1,1.05,1.05,0,0,0,1-1"/><path class="cls-5" d="M44,85.2a1,1,0,0,0-1-1,1,1,0,0,0-1,1,1,1,0,0,0,1,1A1.05,1.05,0,0,0,44,85.2Z"/><path class="cls-7" d="M47.68,51a1,1,0,0,0-1-1,1,1,0,0,0-1,1,1,1,0,0,0,1,1,1.05,1.05,0,0,0,1-1"/><path class="cls-5" d="M47.68,51a1,1,0,0,0-1-1,1,1,0,0,0-1,1,1,1,0,0,0,1,1A1.05,1.05,0,0,0,47.68,51Z"/><path class="cls-7" d="M54.33,69.73a1,1,0,0,0-1-1,1,1,0,0,0-1,1,1,1,0,0,0,1,1,1.05,1.05,0,0,0,1-1"/><path class="cls-5" d="M54.33,69.73a1,1,0,0,0-1-1,1,1,0,0,0-1,1,1,1,0,0,0,1,1A1.05,1.05,0,0,0,54.33,69.73Z"/><path class="cls-7" d="M88.56,92.21a1,1,0,0,0-1-1,1,1,0,0,0-1,1,1,1,0,0,0,1,1,1.05,1.05,0,0,0,1-1"/><path class="cls-5" d="M88.56,92.21a1,1,0,0,0-1-1,1,1,0,0,0-1,1,1,1,0,0,0,1,1A1.05,1.05,0,0,0,88.56,92.21Z"/><path class="cls-7" d="M67.76,30.52a1,1,0,0,0-1-1,1,1,0,0,0-1,1,1,1,0,0,0,1,1,1.05,1.05,0,0,0,1-1"/><path class="cls-5" d="M67.76,30.52a1,1,0,0,0-1-1,1,1,0,0,0-1,1,1,1,0,0,0,1,1A1.05,1.05,0,0,0,67.76,30.52Z"/><path class="cls-7" d="M56.25,98.26a1,1,0,0,0-1-1,1,1,0,0,0-1,1,1,1,0,0,0,1,1,1.05,1.05,0,0,0,1-1"/><path class="cls-5" d="M56.25,98.26a1,1,0,0,0-1-1,1,1,0,0,0-1,1,1,1,0,0,0,1,1A1.05,1.05,0,0,0,56.25,98.26Z"/><path class="cls-7" d="M38.33,59.66a1,1,0,0,0-1-1,1,1,0,0,0-1,1,1,1,0,0,0,1,1,1.05,1.05,0,0,0,1-1"/><path class="cls-5" d="M38.33,59.66a1,1,0,0,0-1-1,1,1,0,0,0-1,1,1,1,0,0,0,1,1A1.05,1.05,0,0,0,38.33,59.66Z"/><path class="cls-7" d="M19,73.33a1,1,0,0,0-1-1,1,1,0,0,0-1,1,1,1,0,0,0,1,1,1.05,1.05,0,0,0,1-1"/><path class="cls-5" d="M19,73.33a1,1,0,0,0-1-1,1,1,0,0,0-1,1,1,1,0,0,0,1,1A1.05,1.05,0,0,0,19,73.33Z"/><path class="cls-7" d="M39.05,60.86a1,1,0,0,0-1-1,1,1,0,0,0-1,1,1,1,0,0,0,1,1,1.05,1.05,0,0,0,1-1"/><path class="cls-5" d="M39.05,60.86a1,1,0,0,0-1-1,1,1,0,0,0-1,1,1,1,0,0,0,1,1A1.05,1.05,0,0,0,39.05,60.86Z"/><path class="cls-7" d="M102.29,22.43a1,1,0,0,0-1-1,1,1,0,0,0-1,1,1,1,0,0,0,1,1,1.05,1.05,0,0,0,1-1"/><path class="cls-5" d="M102.29,22.43a1,1,0,0,0-1-1,1,1,0,0,0-1,1,1,1,0,0,0,1,1A1.05,1.05,0,0,0,102.29,22.43Z"/><path class="cls-7" d="M101.51,76.5a1,1,0,0,0-1-1,1,1,0,0,0-1,1,1,1,0,0,0,1,1,1.05,1.05,0,0,0,1-1"/><path class="cls-5" d="M101.51,76.5a1,1,0,0,0-1-1,1,1,0,0,0-1,1,1,1,0,0,0,1,1A1.05,1.05,0,0,0,101.51,76.5Z"/><path class="cls-7" d="M77.17,39.1a1,1,0,0,0-1-1,1,1,0,0,0-1,1,1,1,0,0,0,1,1,1.05,1.05,0,0,0,1-1"/><path class="cls-5" d="M77.17,39.1a1,1,0,0,0-1-1,1,1,0,0,0-1,1,1,1,0,0,0,1,1A1.05,1.05,0,0,0,77.17,39.1Z"/><path class="cls-7" d="M74.11,65.89a1,1,0,0,0-1-1,1,1,0,0,0-1,1,1,1,0,0,0,1,1,1.05,1.05,0,0,0,1-1"/><path class="cls-5" d="M74.11,65.89a1,1,0,0,0-1-1,1,1,0,0,0-1,1,1,1,0,0,0,1,1A1.05,1.05,0,0,0,74.11,65.89Z"/><path class="cls-7" d="M55.65,61.16a1,1,0,0,0-1-1,1,1,0,0,0-1,1,1,1,0,0,0,1,1,1.05,1.05,0,0,0,1-1"/><path class="cls-5" d="M55.65,61.16a1,1,0,0,0-1-1,1,1,0,0,0-1,1,1,1,0,0,0,1,1A1.05,1.05,0,0,0,55.65,61.16Z"/><path class="cls-7" d="M58.29,101.8a1,1,0,0,0-1-1,1,1,0,0,0-1,1,1,1,0,0,0,1,1,1.05,1.05,0,0,0,1-1"/><path class="cls-5" d="M58.29,101.8a1,1,0,0,0-1-1,1,1,0,0,0-1,1,1,1,0,0,0,1,1A1.05,1.05,0,0,0,58.29,101.8Z"/><path class="cls-7" d="M14.65,101.62a1,1,0,0,0-1-1,1,1,0,0,0-1,1,1,1,0,0,0,1,1,1.05,1.05,0,0,0,1-1"/><path class="cls-5" d="M14.65,101.62a1,1,0,0,0-1-1,1,1,0,0,0-1,1,1,1,0,0,0,1,1A1.05,1.05,0,0,0,14.65,101.62Z"/><path class="cls-7" d="M94.08,72.19a1,1,0,0,0-1-1,1,1,0,0,0-1,1,1,1,0,0,0,1,1,1.05,1.05,0,0,0,1-1"/><path class="cls-5" d="M94.08,72.19a1,1,0,0,0-1-1,1,1,0,0,0-1,1,1,1,0,0,0,1,1A1.05,1.05,0,0,0,94.08,72.19Z"/><path class="cls-7" d="M21,24.35a1,1,0,0,0-1-1,1,1,0,0,0-1,1,1,1,0,0,0,1,1,1.05,1.05,0,0,0,1-1"/><path class="cls-5" d="M21,24.35a1,1,0,0,0-1-1,1,1,0,0,0-1,1,1,1,0,0,0,1,1A1.05,1.05,0,0,0,21,24.35Z"/><path class="cls-7" d="M33.59,88.73a1,1,0,0,0-1-1,1,1,0,0,0-1,1,1,1,0,0,0,1,1,1.05,1.05,0,0,0,1-1"/><path class="cls-5" d="M33.59,88.73a1,1,0,0,0-1-1,1,1,0,0,0-1,1,1,1,0,0,0,1,1A1.05,1.05,0,0,0,33.59,88.73Z"/><path class="cls-7" d="M60.21,67.75a1,1,0,0,0-1-1,1,1,0,0,0-1,1,1,1,0,0,0,1,1,1.05,1.05,0,0,0,1-1"/><path class="cls-5" d="M60.21,67.75a1,1,0,0,0-1-1,1,1,0,0,0-1,1,1,1,0,0,0,1,1A1.05,1.05,0,0,0,60.21,67.75Z"/><path class="cls-7" d="M75.91,11.7a1,1,0,0,0-1-1,1,1,0,0,0-1,1,1,1,0,0,0,1,1,1.05,1.05,0,0,0,1-1"/><path class="cls-5" d="M75.91,11.7a1,1,0,0,0-1-1,1,1,0,0,0-1,1,1,1,0,0,0,1,1A1.05,1.05,0,0,0,75.91,11.7Z"/><path class="cls-7" d="M41.2,57.68a.62.62,0,0,0-.66-.6.57.57,0,0,0-.6.6.62.62,0,0,0,.6.66.67.67,0,0,0,.66-.66"/><path class="cls-5" d="M41.2,57.68a.62.62,0,0,0-.66-.6.57.57,0,0,0-.6.6.62.62,0,0,0,.6.66A.67.67,0,0,0,41.2,57.68Z"/><rect class="cls-2" x="114.9" y="10.14" width="94.54" height="94.6"/><rect class="cls-3" x="114.9" y="10.14" width="94.54" height="94.6"/><text class="cls-4" transform="translate(106.59 6.65)">(b)</text><path class="cls-5" d="M209.86,57.32a47.72,47.72,0,1,0-47.72,47.78A47.73,47.73,0,0,0,209.86,57.32Zm-.42,47.42V10.14m-95.8,0h1.26m-1.26,23.62h1.26m-1.26,23.62h1.26m-1.26,23.68h1.26m-1.26,23.68h1.26m0,0V10.14m0,0h94.54m0,95.92v-1.32m-23.68,1.32v-1.32m-23.62,1.32v-1.32m-23.62,1.32v-1.32m-23.62,1.32v-1.32m0,0h94.54"/><path class="cls-7" d="M145,42.39a1,1,0,0,0-1-1,1,1,0,0,0-1,1,1,1,0,0,0,1,1,1.05,1.05,0,0,0,1-1"/><path class="cls-5" d="M145,42.39a1,1,0,0,0-1-1,1,1,0,0,0-1,1,1,1,0,0,0,1,1A1.05,1.05,0,0,0,145,42.39Z"/><path class="cls-7" d="M193.13,70a1,1,0,0,0-1-1,1,1,0,0,0-1,1,1,1,0,0,0,1,1,1.05,1.05,0,0,0,1-1"/><path class="cls-5" d="M193.13,70a1,1,0,0,0-1-1,1,1,0,0,0-1,1,1,1,0,0,0,1,1A1.05,1.05,0,0,0,193.13,70Z"/><path class="cls-7" d="M159.74,32.08a1,1,0,0,0-1-1,1,1,0,0,0-1,1,1,1,0,0,0,1,1,1.05,1.05,0,0,0,1-1"/><path class="cls-5" d="M159.74,32.08a1,1,0,0,0-1-1,1,1,0,0,0-1,1,1,1,0,0,0,1,1A1.05,1.05,0,0,0,159.74,32.08Z"/><path class="cls-7" d="M193.25,30.34a1,1,0,0,0-1-1,1,1,0,0,0-1,1,1,1,0,0,0,1,1,1.05,1.05,0,0,0,1-1"/><path class="cls-5" d="M193.25,30.34a1,1,0,0,0-1-1,1,1,0,0,0-1,1,1,1,0,0,0,1,1A1.05,1.05,0,0,0,193.25,30.34Z"/><path class="cls-7" d="M196.31,102.88a1,1,0,0,0-1-1,1,1,0,0,0-1,1,1,1,0,0,0,1,1,1.05,1.05,0,0,0,1-1"/><path class="cls-5" d="M196.31,102.88a1,1,0,0,0-1-1,1,1,0,0,0-1,1,1,1,0,0,0,1,1A1.05,1.05,0,0,0,196.31,102.88Z"/><path class="cls-7" d="M183.24,66.85a1,1,0,0,0-1-1,1,1,0,0,0-1,1,1,1,0,0,0,1,1,1.05,1.05,0,0,0,1-1"/><path class="cls-5" d="M183.24,66.85a1,1,0,0,0-1-1,1,1,0,0,0-1,1,1,1,0,0,0,1,1A1.05,1.05,0,0,0,183.24,66.85Z"/><path class="cls-7" d="M179.16,104.5a1,1,0,0,0-1-1,1,1,0,0,0-1,1,1,1,0,0,0,1,1,1,1,0,0,0,1-1"/><path class="cls-5" d="M179.16,104.5a1,1,0,0,0-1-1,1,1,0,0,0-1,1,1,1,0,0,0,1,1A1,1,0,0,0,179.16,104.5Z"/><path class="cls-7" d="M182.16,74.76a1,1,0,0,0-1-1,1,1,0,0,0-1,1,1,1,0,0,0,1,1,1.05,1.05,0,0,0,1-1"/><path class="cls-5" d="M182.16,74.76a1,1,0,0,0-1-1,1,1,0,0,0-1,1,1,1,0,0,0,1,1A1.05,1.05,0,0,0,182.16,74.76Z"/><path class="cls-7" d="M182.34,30.76a1,1,0,0,0-1-1,1,1,0,0,0-1,1,1,1,0,0,0,1,1,1.05,1.05,0,0,0,1-1"/><path class="cls-5" d="M182.34,30.76a1,1,0,0,0-1-1,1,1,0,0,0-1,1,1,1,0,0,0,1,1A1.05,1.05,0,0,0,182.34,30.76Z"/><path class="cls-7" d="M195.11,96a1,1,0,0,0-1-1,1,1,0,0,0-1,1,1,1,0,0,0,1,1,1.05,1.05,0,0,0,1-1"/><path class="cls-5" d="M195.11,96a1,1,0,0,0-1-1,1,1,0,0,0-1,1,1,1,0,0,0,1,1A1.05,1.05,0,0,0,195.11,96Z"/><path class="cls-7" d="M165,62.06a1,1,0,0,0-1-1,1,1,0,0,0-1,1,1,1,0,0,0,1,1,1.05,1.05,0,0,0,1-1"/><path class="cls-5" d="M165,62.06a1,1,0,0,0-1-1,1,1,0,0,0-1,1,1,1,0,0,0,1,1A1.05,1.05,0,0,0,165,62.06Z"/><path class="cls-7" d="M131.33,60.86a1,1,0,0,0-1-1,1,1,0,0,0-1,1,1,1,0,0,0,1,1,1.05,1.05,0,0,0,1-1"/><path class="cls-5" d="M131.33,60.86a1,1,0,0,0-1-1,1,1,0,0,0-1,1,1,1,0,0,0,1,1A1.05,1.05,0,0,0,131.33,60.86Z"/><path class="cls-7" d="M136.72,43.83a1,1,0,0,0-1-1,1,1,0,0,0-1,1,1,1,0,0,0,1,1,1.05,1.05,0,0,0,1-1"/><path class="cls-5" d="M136.72,43.83a1,1,0,0,0-1-1,1,1,0,0,0-1,1,1,1,0,0,0,1,1A1.05,1.05,0,0,0,136.72,43.83Z"/><path class="cls-7" d="M153.39,19.07a1,1,0,0,0-1-1,1,1,0,0,0-1,1,1,1,0,0,0,1,1,1.05,1.05,0,0,0,1-1"/><path class="cls-5" d="M153.39,19.07a1,1,0,0,0-1-1,1,1,0,0,0-1,1,1,1,0,0,0,1,1A1.05,1.05,0,0,0,153.39,19.07Z"/><path class="cls-7" d="M190.49,74.11a1,1,0,0,0-1-1,1,1,0,0,0-1,1,1,1,0,0,0,1,1,1,1,0,0,0,1-1"/><path class="cls-5" d="M190.49,74.11a1,1,0,0,0-1-1,1,1,0,0,0-1,1,1,1,0,0,0,1,1A1,1,0,0,0,190.49,74.11Z"/><path class="cls-7" d="M118,70.87a1,1,0,0,0-1-1,1,1,0,0,0-1,1,1,1,0,0,0,1,1,1.05,1.05,0,0,0,1-1"/><path class="cls-5" d="M118,70.87a1,1,0,0,0-1-1,1,1,0,0,0-1,1,1,1,0,0,0,1,1A1.05,1.05,0,0,0,118,70.87Z"/><path class="cls-7" d="M186.42,91.31a1,1,0,0,0-1-1,1,1,0,0,0-1,1,1,1,0,0,0,1,1,1.05,1.05,0,0,0,1-1"/><path class="cls-5" d="M186.42,91.31a1,1,0,0,0-1-1,1,1,0,0,0-1,1,1,1,0,0,0,1,1A1.05,1.05,0,0,0,186.42,91.31Z"/><path class="cls-7" d="M197.87,19.31a1,1,0,0,0-1-1,1,1,0,0,0-1,1,1,1,0,0,0,1,1,1.05,1.05,0,0,0,1-1"/><path class="cls-5" d="M197.87,19.31a1,1,0,0,0-1-1,1,1,0,0,0-1,1,1,1,0,0,0,1,1A1.05,1.05,0,0,0,197.87,19.31Z"/><path class="cls-7" d="M159.2,12.18a1,1,0,0,0-1-1,1,1,0,0,0-1,1,1,1,0,0,0,1,1,1.05,1.05,0,0,0,1-1"/><path class="cls-5" d="M159.2,12.18a1,1,0,0,0-1-1,1,1,0,0,0-1,1,1,1,0,0,0,1,1A1.05,1.05,0,0,0,159.2,12.18Z"/><path class="cls-7" d="M192.65,83.58a1,1,0,0,0-1-1,1,1,0,0,0-1,1,1,1,0,0,0,1,1,1.05,1.05,0,0,0,1-1"/><path class="cls-5" d="M192.65,83.58a1,1,0,0,0-1-1,1,1,0,0,0-1,1,1,1,0,0,0,1,1A1.05,1.05,0,0,0,192.65,83.58Z"/><path class="cls-7" d="M164.6,50.61a1,1,0,0,0-1-1,1,1,0,0,0-1,1,1,1,0,0,0,1,1,1,1,0,0,0,1-1"/><path class="cls-5" d="M164.6,50.61a1,1,0,0,0-1-1,1,1,0,0,0-1,1,1,1,0,0,0,1,1A1,1,0,0,0,164.6,50.61Z"/><path class="cls-7" d="M207,30a1,1,0,0,0-1-1,1,1,0,0,0-1,1,1,1,0,0,0,1,1,1.05,1.05,0,0,0,1-1"/><path class="cls-5" d="M207,30a1,1,0,0,0-1-1,1,1,0,0,0-1,1,1,1,0,0,0,1,1A1.05,1.05,0,0,0,207,30Z"/><path class="cls-7" d="M149.37,72.61a1,1,0,0,0-1-1,1,1,0,0,0-1,1,1,1,0,0,0,1,1,1.05,1.05,0,0,0,1-1"/><path class="cls-5" d="M149.37,72.61a1,1,0,0,0-1-1,1,1,0,0,0-1,1,1,1,0,0,0,1,1A1.05,1.05,0,0,0,149.37,72.61Z"/><path class="cls-7" d="M145.29,10.8a1,1,0,0,0-1-1,1,1,0,0,0-1,1,1,1,0,0,0,1,1,1.05,1.05,0,0,0,1-1"/><path class="cls-5" d="M145.29,10.8a1,1,0,0,0-1-1,1,1,0,0,0-1,1,1,1,0,0,0,1,1A1.05,1.05,0,0,0,145.29,10.8Z"/><path class="cls-7" d="M116.94,30.76a1,1,0,0,0-1-1,1,1,0,0,0-1,1,1,1,0,0,0,1,1,1.05,1.05,0,0,0,1-1"/><path class="cls-5" d="M116.94,30.76a1,1,0,0,0-1-1,1,1,0,0,0-1,1,1,1,0,0,0,1,1A1.05,1.05,0,0,0,116.94,30.76Z"/><path class="cls-7" d="M174.49,17.63a1,1,0,0,0-1-1,1,1,0,0,0-1,1,1,1,0,0,0,1,1,1.05,1.05,0,0,0,1-1"/><path class="cls-5" d="M174.49,17.63a1,1,0,0,0-1-1,1,1,0,0,0-1,1,1,1,0,0,0,1,1A1.05,1.05,0,0,0,174.49,17.63Z"/><path class="cls-7" d="M200.69,88.85a1,1,0,0,0-1-1,1,1,0,0,0-1,1,1,1,0,0,0,1,1,1.05,1.05,0,0,0,1-1"/><path class="cls-5" d="M200.69,88.85a1,1,0,0,0-1-1,1,1,0,0,0-1,1,1,1,0,0,0,1,1A1.05,1.05,0,0,0,200.69,88.85Z"/><path class="cls-7" d="M118.8,80.58a1,1,0,0,0-1-1,1,1,0,0,0-1,1,1,1,0,0,0,1,1,1.05,1.05,0,0,0,1-1"/><path class="cls-5" d="M118.8,80.58a1,1,0,0,0-1-1,1,1,0,0,0-1,1,1,1,0,0,0,1,1A1.05,1.05,0,0,0,118.8,80.58Z"/><path class="cls-7" d="M160.76,94.61a1,1,0,0,0-1-1,1,1,0,0,0-1,1,1,1,0,0,0,1,1,1.05,1.05,0,0,0,1-1"/><path class="cls-5" d="M160.76,94.61a1,1,0,0,0-1-1,1,1,0,0,0-1,1,1,1,0,0,0,1,1A1.05,1.05,0,0,0,160.76,94.61Z"/><path class="cls-7" d="M185.4,85a1,1,0,0,0-1-1,1,1,0,0,0-1,1,1,1,0,0,0,1,1,1.06,1.06,0,0,0,1-1"/><path class="cls-5" d="M185.4,85a1,1,0,0,0-1-1,1,1,0,0,0-1,1,1,1,0,0,0,1,1A1.06,1.06,0,0,0,185.4,85Z"/><path class="cls-7" d="M140.5,65.17a1,1,0,0,0-1-1,1,1,0,0,0-1,1,1,1,0,0,0,1,1,1.05,1.05,0,0,0,1-1"/><path class="cls-5" d="M140.5,65.17a1,1,0,0,0-1-1,1,1,0,0,0-1,1,1,1,0,0,0,1,1A1.05,1.05,0,0,0,140.5,65.17Z"/><path class="cls-7" d="M182.64,95.15a1,1,0,0,0-1-1,1,1,0,0,0-1,1,1,1,0,0,0,1,1,1.05,1.05,0,0,0,1-1"/><path class="cls-5" d="M182.64,95.15a1,1,0,0,0-1-1,1,1,0,0,0-1,1,1,1,0,0,0,1,1A1.05,1.05,0,0,0,182.64,95.15Z"/><path class="cls-7" d="M154.82,77.58a1,1,0,0,0-1-1,1,1,0,0,0-1,1,1,1,0,0,0,1,1,1,1,0,0,0,1-1"/><path class="cls-5" d="M154.82,77.58a1,1,0,0,0-1-1,1,1,0,0,0-1,1,1,1,0,0,0,1,1A1,1,0,0,0,154.82,77.58Z"/><path class="cls-7" d="M176.77,22.25a1,1,0,0,0-1-1,1,1,0,0,0-1,1,1,1,0,0,0,1,1,1.05,1.05,0,0,0,1-1"/><path class="cls-5" d="M176.77,22.25a1,1,0,0,0-1-1,1,1,0,0,0-1,1,1,1,0,0,0,1,1A1.05,1.05,0,0,0,176.77,22.25Z"/><path class="cls-7" d="M151.23,49.65a1,1,0,0,0-1-1,1,1,0,0,0-1,1,1,1,0,0,0,1,1,1.05,1.05,0,0,0,1-1"/><path class="cls-5" d="M151.23,49.65a1,1,0,0,0-1-1,1,1,0,0,0-1,1,1,1,0,0,0,1,1A1.05,1.05,0,0,0,151.23,49.65Z"/><path class="cls-7" d="M156,29a1,1,0,0,0-1-1,1,1,0,0,0-1,1,1,1,0,0,0,1,1,1.05,1.05,0,0,0,1-1"/><path class="cls-5" d="M156,29a1,1,0,0,0-1-1,1,1,0,0,0-1,1,1,1,0,0,0,1,1A1.05,1.05,0,0,0,156,29Z"/><path class="cls-7" d="M183.48,77.22a1,1,0,0,0-1-1,1,1,0,0,0-1,1,1,1,0,0,0,1,1,1.05,1.05,0,0,0,1-1"/><path class="cls-5" d="M183.48,77.22a1,1,0,0,0-1-1,1,1,0,0,0-1,1,1,1,0,0,0,1,1A1.05,1.05,0,0,0,183.48,77.22Z"/><path class="cls-7" d="M177.3,102.64a1,1,0,0,0-1-1,1,1,0,0,0-1,1,1,1,0,0,0,1,1,1,1,0,0,0,1-1"/><path class="cls-5" d="M177.3,102.64a1,1,0,0,0-1-1,1,1,0,0,0-1,1,1,1,0,0,0,1,1A1,1,0,0,0,177.3,102.64Z"/><path class="cls-7" d="M171.67,85.56a1,1,0,0,0-1-1,1,1,0,0,0-1,1,1,1,0,0,0,1,1,1,1,0,0,0,1-1"/><path class="cls-5" d="M171.67,85.56a1,1,0,0,0-1-1,1,1,0,0,0-1,1,1,1,0,0,0,1,1A1,1,0,0,0,171.67,85.56Z"/><path class="cls-7" d="M176.82,38a1,1,0,0,0-1-1,1,1,0,0,0-1,1,1,1,0,0,0,1,1,1,1,0,0,0,1-1"/><path class="cls-5" d="M176.82,38a1,1,0,0,0-1-1,1,1,0,0,0-1,1,1,1,0,0,0,1,1A1,1,0,0,0,176.82,38Z"/><path class="cls-7" d="M140.5,68.29a1,1,0,0,0-1-1,1,1,0,0,0-1,1,1,1,0,0,0,1,1,1.05,1.05,0,0,0,1-1"/><path class="cls-5" d="M140.5,68.29a1,1,0,0,0-1-1,1,1,0,0,0-1,1,1,1,0,0,0,1,1A1.05,1.05,0,0,0,140.5,68.29Z"/><path class="cls-7" d="M174.73,58.34a1,1,0,0,0-1-1,1,1,0,0,0-1,1,1,1,0,0,0,1,1,1.05,1.05,0,0,0,1-1"/><path class="cls-5" d="M174.73,58.34a1,1,0,0,0-1-1,1,1,0,0,0-1,1,1,1,0,0,0,1,1A1.05,1.05,0,0,0,174.73,58.34Z"/><path class="cls-7" d="M175.75,14.4a1,1,0,0,0-1-1,1,1,0,0,0-1,1,1,1,0,0,0,1,1,1.05,1.05,0,0,0,1-1"/><path class="cls-5" d="M175.75,14.4a1,1,0,0,0-1-1,1,1,0,0,0-1,1,1,1,0,0,0,1,1A1.05,1.05,0,0,0,175.75,14.4Z"/><path class="cls-7" d="M129.77,86.87a1,1,0,0,0-1-1,1,1,0,0,0-1,1,1,1,0,0,0,1,1,1.05,1.05,0,0,0,1-1"/><path class="cls-5" d="M129.77,86.87a1,1,0,0,0-1-1,1,1,0,0,0-1,1,1,1,0,0,0,1,1A1.05,1.05,0,0,0,129.77,86.87Z"/><path class="cls-7" d="M177,70a1,1,0,0,0-1-1,1,1,0,0,0-1,1,1,1,0,0,0,1,1,1.06,1.06,0,0,0,1-1"/><path class="cls-5" d="M177,70a1,1,0,0,0-1-1,1,1,0,0,0-1,1,1,1,0,0,0,1,1A1.06,1.06,0,0,0,177,70Z"/><path class="cls-7" d="M160.16,31.24a1,1,0,0,0-1-1,1,1,0,0,0-1,1,1,1,0,0,0,1,1,1.05,1.05,0,0,0,1-1"/><path class="cls-5" d="M160.16,31.24a1,1,0,0,0-1-1,1,1,0,0,0-1,1,1,1,0,0,0,1,1A1.05,1.05,0,0,0,160.16,31.24Z"/><path class="cls-7" d="M159.92,92a1,1,0,0,0-1-1,1,1,0,0,0-1,1,1,1,0,0,0,1,1,1.05,1.05,0,0,0,1-1"/><path class="cls-5" d="M159.92,92a1,1,0,0,0-1-1,1,1,0,0,0-1,1,1,1,0,0,0,1,1A1.05,1.05,0,0,0,159.92,92Z"/><path class="cls-7" d="M116.58,100.84a1,1,0,0,0-1-1,1,1,0,0,0-1,1,1,1,0,0,0,1,1,1.05,1.05,0,0,0,1-1"/><path class="cls-5" d="M116.58,100.84a1,1,0,0,0-1-1,1,1,0,0,0-1,1,1,1,0,0,0,1,1A1.05,1.05,0,0,0,116.58,100.84Z"/><path class="cls-7" d="M178.57,44.07a1,1,0,0,0-1-1,1,1,0,0,0-1,1,1,1,0,0,0,1,1,1.06,1.06,0,0,0,1-1"/><path class="cls-5" d="M178.57,44.07a1,1,0,0,0-1-1,1,1,0,0,0-1,1,1,1,0,0,0,1,1A1.06,1.06,0,0,0,178.57,44.07Z"/><path class="cls-7" d="M162.32,32.26a1,1,0,0,0-1-1,1,1,0,0,0-1,1,1,1,0,0,0,1,1,1.05,1.05,0,0,0,1-1"/><path class="cls-5" d="M162.32,32.26a1,1,0,0,0-1-1,1,1,0,0,0-1,1,1,1,0,0,0,1,1A1.05,1.05,0,0,0,162.32,32.26Z"/><path class="cls-7" d="M204.16,95.93a1,1,0,0,0-1-1,1,1,0,0,0-1,1,1,1,0,0,0,1,1,1.05,1.05,0,0,0,1-1"/><path class="cls-5" d="M204.16,95.93a1,1,0,0,0-1-1,1,1,0,0,0-1,1,1,1,0,0,0,1,1A1.05,1.05,0,0,0,204.16,95.93Z"/><path class="cls-7" d="M197.45,74.58a1,1,0,0,0-1-1,1,1,0,0,0-1,1,1,1,0,0,0,1,1,1.05,1.05,0,0,0,1-1"/><path class="cls-5" d="M197.45,74.58a1,1,0,0,0-1-1,1,1,0,0,0-1,1,1,1,0,0,0,1,1A1.05,1.05,0,0,0,197.45,74.58Z"/><path class="cls-7" d="M198.47,13.26a1,1,0,0,0-1-1,1,1,0,0,0-1,1,1,1,0,0,0,1,1,1.05,1.05,0,0,0,1-1"/><path class="cls-5" d="M198.47,13.26a1,1,0,0,0-1-1,1,1,0,0,0-1,1,1,1,0,0,0,1,1A1.05,1.05,0,0,0,198.47,13.26Z"/><path class="cls-7" d="M208.54,73.69a1,1,0,0,0-1-1,1,1,0,0,0-1,1,1,1,0,0,0,1,1,1.05,1.05,0,0,0,1-1"/><path class="cls-5" d="M208.54,73.69a1,1,0,0,0-1-1,1,1,0,0,0-1,1,1,1,0,0,0,1,1A1.05,1.05,0,0,0,208.54,73.69Z"/><path class="cls-7" d="M134.68,28.19a1,1,0,0,0-1-1,1,1,0,0,0-1,1,1,1,0,0,0,1,1,1.05,1.05,0,0,0,1-1"/><path class="cls-5" d="M134.68,28.19a1,1,0,0,0-1-1,1,1,0,0,0-1,1,1,1,0,0,0,1,1A1.05,1.05,0,0,0,134.68,28.19Z"/><path class="cls-7" d="M133.18,104.38a1,1,0,0,0-1-1,1,1,0,0,0-1,1,1,1,0,0,0,1,1,1,1,0,0,0,1-1"/><path class="cls-5" d="M133.18,104.38a1,1,0,0,0-1-1,1,1,0,0,0-1,1,1,1,0,0,0,1,1A1,1,0,0,0,133.18,104.38Z"/><path class="cls-7" d="M161,81.6a1,1,0,0,0-1-1,1,1,0,0,0-1,1,1,1,0,0,0,1,1,1.05,1.05,0,0,0,1-1"/><path class="cls-5" d="M161,81.6a1,1,0,0,0-1-1,1,1,0,0,0-1,1,1,1,0,0,0,1,1A1.05,1.05,0,0,0,161,81.6Z"/><path class="cls-7" d="M140.68,11a1,1,0,0,0-1-1,1,1,0,0,0-1,1,1,1,0,0,0,1,1,1.05,1.05,0,0,0,1-1"/><path class="cls-5" d="M140.68,11a1,1,0,0,0-1-1,1,1,0,0,0-1,1,1,1,0,0,0,1,1A1.05,1.05,0,0,0,140.68,11Z"/><path class="cls-7" d="M193.85,34.06a1,1,0,0,0-1-1,1,1,0,0,0-1,1,1,1,0,0,0,1,1,1.05,1.05,0,0,0,1-1"/><path class="cls-5" d="M193.85,34.06a1,1,0,0,0-1-1,1,1,0,0,0-1,1,1,1,0,0,0,1,1A1.05,1.05,0,0,0,193.85,34.06Z"/><path class="cls-7" d="M198.65,50.61a1,1,0,0,0-1-1,1,1,0,0,0-1,1,1,1,0,0,0,1,1,1,1,0,0,0,1-1"/><path class="cls-5" d="M198.65,50.61a1,1,0,0,0-1-1,1,1,0,0,0-1,1,1,1,0,0,0,1,1A1,1,0,0,0,198.65,50.61Z"/><path class="cls-7" d="M134.44,103.84a1,1,0,0,0-1-1,1,1,0,0,0-1,1,1,1,0,0,0,1,1,1.05,1.05,0,0,0,1-1"/><path class="cls-5" d="M134.44,103.84a1,1,0,0,0-1-1,1,1,0,0,0-1,1,1,1,0,0,0,1,1A1.05,1.05,0,0,0,134.44,103.84Z"/><path class="cls-7" d="M127.67,97.43a1,1,0,0,0-1-1,1,1,0,0,0-1,1,1,1,0,0,0,1,1,1,1,0,0,0,1-1"/><path class="cls-5" d="M127.67,97.43a1,1,0,0,0-1-1,1,1,0,0,0-1,1,1,1,0,0,0,1,1A1,1,0,0,0,127.67,97.43Z"/><path class="cls-7" d="M126,63a1,1,0,0,0-1-1,1,1,0,0,0-1,1,1,1,0,0,0,1,1,1,1,0,0,0,1-1"/><path class="cls-5" d="M126,63a1,1,0,0,0-1-1,1,1,0,0,0-1,1,1,1,0,0,0,1,1A1,1,0,0,0,126,63Z"/><path class="cls-7" d="M208.36,66.91a1,1,0,0,0-1-1,1,1,0,0,0-1,1,1,1,0,0,0,1,1,1.05,1.05,0,0,0,1-1"/><path class="cls-5" d="M208.36,66.91a1,1,0,0,0-1-1,1,1,0,0,0-1,1,1,1,0,0,0,1,1A1.05,1.05,0,0,0,208.36,66.91Z"/><path class="cls-7" d="M175.45,64.15a1,1,0,0,0-1-1,1,1,0,0,0-1,1,1,1,0,0,0,1,1,1.05,1.05,0,0,0,1-1"/><path class="cls-5" d="M175.45,64.15a1,1,0,0,0-1-1,1,1,0,0,0-1,1,1,1,0,0,0,1,1A1.05,1.05,0,0,0,175.45,64.15Z"/><path class="cls-7" d="M174.13,64.27a1,1,0,0,0-1-1,1,1,0,0,0-1,1,1,1,0,0,0,1,1,1.05,1.05,0,0,0,1-1"/><path class="cls-5" d="M174.13,64.27a1,1,0,0,0-1-1,1,1,0,0,0-1,1,1,1,0,0,0,1,1A1.05,1.05,0,0,0,174.13,64.27Z"/><path class="cls-7" d="M173.05,42.15a1,1,0,0,0-1-1,1,1,0,0,0-1,1,1,1,0,0,0,1,1,1.05,1.05,0,0,0,1-1"/><path class="cls-5" d="M173.05,42.15a1,1,0,0,0-1-1,1,1,0,0,0-1,1,1,1,0,0,0,1,1A1.05,1.05,0,0,0,173.05,42.15Z"/><path class="cls-7" d="M176.41,28.66a1,1,0,0,0-1-1,1,1,0,0,0-1,1,1,1,0,0,0,1,1,1.05,1.05,0,0,0,1-1"/><path class="cls-5" d="M176.41,28.66a1,1,0,0,0-1-1,1,1,0,0,0-1,1,1,1,0,0,0,1,1A1.05,1.05,0,0,0,176.41,28.66Z"/><path class="cls-7" d="M174.19,64.15a1,1,0,0,0-1-1,1,1,0,0,0-1,1,1,1,0,0,0,1,1,1.05,1.05,0,0,0,1-1"/><path class="cls-5" d="M174.19,64.15a1,1,0,0,0-1-1,1,1,0,0,0-1,1,1,1,0,0,0,1,1A1.05,1.05,0,0,0,174.19,64.15Z"/><path class="cls-7" d="M128.63,32a1,1,0,0,0-1-1,1,1,0,0,0-1,1,1,1,0,0,0,1,1,1.05,1.05,0,0,0,1-1"/><path class="cls-5" d="M128.63,32a1,1,0,0,0-1-1,1,1,0,0,0-1,1,1,1,0,0,0,1,1A1.05,1.05,0,0,0,128.63,32Z"/><path class="cls-7" d="M186,104.62a1,1,0,0,0-1-1,1,1,0,0,0-1,1,1,1,0,0,0,1,1,1.05,1.05,0,0,0,1-1"/><path class="cls-5" d="M186,104.62a1,1,0,0,0-1-1,1,1,0,0,0-1,1,1,1,0,0,0,1,1A1.05,1.05,0,0,0,186,104.62Z"/><path class="cls-7" d="M153.45,104.26a1,1,0,0,0-1-1,1,1,0,0,0-1,1,1,1,0,0,0,1,1,1.05,1.05,0,0,0,1-1"/><path class="cls-5" d="M153.45,104.26a1,1,0,0,0-1-1,1,1,0,0,0-1,1,1,1,0,0,0,1,1A1.05,1.05,0,0,0,153.45,104.26Z"/><path class="cls-7" d="M153.15,63.55a1,1,0,0,0-1-1,1,1,0,0,0-1,1,1,1,0,0,0,1,1,1,1,0,0,0,1-1"/><path class="cls-5" d="M153.15,63.55a1,1,0,0,0-1-1,1,1,0,0,0-1,1,1,1,0,0,0,1,1A1,1,0,0,0,153.15,63.55Z"/><path class="cls-7" d="M120,25a1,1,0,0,0-1-1,1,1,0,0,0-1,1,1,1,0,0,0,1,1,1.05,1.05,0,0,0,1-1"/><path class="cls-5" d="M120,25a1,1,0,0,0-1-1,1,1,0,0,0-1,1,1,1,0,0,0,1,1A1.05,1.05,0,0,0,120,25Z"/><path class="cls-7" d="M144.81,41.19a1,1,0,0,0-1-1,1,1,0,0,0-1,1,1,1,0,0,0,1,1,1.05,1.05,0,0,0,1-1"/><path class="cls-5" d="M144.81,41.19a1,1,0,0,0-1-1,1,1,0,0,0-1,1,1,1,0,0,0,1,1A1.05,1.05,0,0,0,144.81,41.19Z"/><path class="cls-7" d="M162,27.47a1,1,0,0,0-1-1,1,1,0,0,0-1,1,1,1,0,0,0,1,1,1.05,1.05,0,0,0,1-1"/><path class="cls-5" d="M162,27.47a1,1,0,0,0-1-1,1,1,0,0,0-1,1,1,1,0,0,0,1,1A1.05,1.05,0,0,0,162,27.47Z"/><path class="cls-7" d="M192.53,16.08a1,1,0,0,0-1-1,1,1,0,0,0-1,1,1,1,0,0,0,1,1,1.06,1.06,0,0,0,1-1"/><path class="cls-5" d="M192.53,16.08a1,1,0,0,0-1-1,1,1,0,0,0-1,1,1,1,0,0,0,1,1A1.06,1.06,0,0,0,192.53,16.08Z"/><path class="cls-7" d="M207.52,101.86a1,1,0,0,0-1-1,1,1,0,0,0-1,1,1,1,0,0,0,1,1,1.05,1.05,0,0,0,1-1"/><path class="cls-5" d="M207.52,101.86a1,1,0,0,0-1-1,1,1,0,0,0-1,1,1,1,0,0,0,1,1A1.05,1.05,0,0,0,207.52,101.86Z"/><path class="cls-7" d="M148.71,12.66a1,1,0,0,0-1-1,1,1,0,0,0-1,1,1,1,0,0,0,1,1,1.05,1.05,0,0,0,1-1"/><path class="cls-5" d="M148.71,12.66a1,1,0,0,0-1-1,1,1,0,0,0-1,1,1,1,0,0,0,1,1A1.05,1.05,0,0,0,148.71,12.66Z"/><path class="cls-7" d="M151.35,84.72a1,1,0,0,0-1-1,1,1,0,0,0-1,1,1,1,0,0,0,1,1,1.05,1.05,0,0,0,1-1"/><path class="cls-5" d="M151.35,84.72a1,1,0,0,0-1-1,1,1,0,0,0-1,1,1,1,0,0,0,1,1A1.05,1.05,0,0,0,151.35,84.72Z"/><path class="cls-7" d="M155,50.61a1,1,0,0,0-1-1,1,1,0,0,0-1,1,1,1,0,0,0,1,1,1,1,0,0,0,1-1"/><path class="cls-5" d="M155,50.61a1,1,0,0,0-1-1,1,1,0,0,0-1,1,1,1,0,0,0,1,1A1,1,0,0,0,155,50.61Z"/><path class="cls-7" d="M161.6,69.31a1,1,0,0,0-1-1,1,1,0,0,0-1,1,1,1,0,0,0,1,1,1.05,1.05,0,0,0,1-1"/><path class="cls-5" d="M161.6,69.31a1,1,0,0,0-1-1,1,1,0,0,0-1,1,1,1,0,0,0,1,1A1.05,1.05,0,0,0,161.6,69.31Z"/><path class="cls-7" d="M195.77,91.73a1,1,0,0,0-1-1,1,1,0,0,0-1,1,1,1,0,0,0,1,1,1.05,1.05,0,0,0,1-1"/><path class="cls-5" d="M195.77,91.73a1,1,0,0,0-1-1,1,1,0,0,0-1,1,1,1,0,0,0,1,1A1.05,1.05,0,0,0,195.77,91.73Z"/><path class="cls-7" d="M175.09,30.28a1,1,0,0,0-1-1,1,1,0,0,0-1,1,1,1,0,0,0,1,1,1.05,1.05,0,0,0,1-1"/><path class="cls-5" d="M175.09,30.28a1,1,0,0,0-1-1,1,1,0,0,0-1,1,1,1,0,0,0,1,1A1.05,1.05,0,0,0,175.09,30.28Z"/><path class="cls-7" d="M163.58,97.72a1,1,0,0,0-1-1,1,1,0,0,0-1,1,1,1,0,0,0,1,1,1.05,1.05,0,0,0,1-1"/><path class="cls-5" d="M163.58,97.72a1,1,0,0,0-1-1,1,1,0,0,0-1,1,1,1,0,0,0,1,1A1.05,1.05,0,0,0,163.58,97.72Z"/><path class="cls-7" d="M145.71,59.3a1,1,0,0,0-1-1,1,1,0,0,0-1,1,1,1,0,0,0,1,1,1.05,1.05,0,0,0,1-1"/><path class="cls-5" d="M145.71,59.3a1,1,0,0,0-1-1,1,1,0,0,0-1,1,1,1,0,0,0,1,1A1.05,1.05,0,0,0,145.71,59.3Z"/><path class="cls-7" d="M126.41,72.91a1,1,0,0,0-1-1,1,1,0,0,0-1,1,1,1,0,0,0,1,1,1.05,1.05,0,0,0,1-1"/><path class="cls-5" d="M126.41,72.91a1,1,0,0,0-1-1,1,1,0,0,0-1,1,1,1,0,0,0,1,1A1.05,1.05,0,0,0,126.41,72.91Z"/><path class="cls-7" d="M146.49,60.44a1,1,0,0,0-1-1,1,1,0,0,0-1,1,1,1,0,0,0,1,1,1.05,1.05,0,0,0,1-1"/><path class="cls-5" d="M146.49,60.44a1,1,0,0,0-1-1,1,1,0,0,0-1,1,1,1,0,0,0,1,1A1.05,1.05,0,0,0,146.49,60.44Z"/><path class="cls-7" d="M209.44,22.31a1,1,0,0,0-1-1,1,1,0,0,0-1,1,1,1,0,0,0,1,1,1.05,1.05,0,0,0,1-1"/><path class="cls-5" d="M209.44,22.31a1,1,0,0,0-1-1,1,1,0,0,0-1,1,1,1,0,0,0,1,1A1.05,1.05,0,0,0,209.44,22.31Z"/><path class="cls-7" d="M208.72,76.08a1,1,0,0,0-1-1,1,1,0,0,0-1,1,1,1,0,0,0,1,1,1.05,1.05,0,0,0,1-1"/><path class="cls-5" d="M208.72,76.08a1,1,0,0,0-1-1,1,1,0,0,0-1,1,1,1,0,0,0,1,1A1.05,1.05,0,0,0,208.72,76.08Z"/><path class="cls-7" d="M184.44,38.86a1,1,0,0,0-1-1,1,1,0,0,0-1,1,1,1,0,0,0,1,1,1.05,1.05,0,0,0,1-1"/><path class="cls-5" d="M184.44,38.86a1,1,0,0,0-1-1,1,1,0,0,0-1,1,1,1,0,0,0,1,1A1.05,1.05,0,0,0,184.44,38.86Z"/><path class="cls-7" d="M181.44,65.53a1,1,0,0,0-1-1,1,1,0,0,0-1,1,1,1,0,0,0,1,1,1.05,1.05,0,0,0,1-1"/><path class="cls-5" d="M181.44,65.53a1,1,0,0,0-1-1,1,1,0,0,0-1,1,1,1,0,0,0,1,1A1.05,1.05,0,0,0,181.44,65.53Z"/><path class="cls-7" d="M163,60.86a1,1,0,0,0-1-1,1,1,0,0,0-1,1,1,1,0,0,0,1,1,1.05,1.05,0,0,0,1-1"/><path class="cls-5" d="M163,60.86a1,1,0,0,0-1-1,1,1,0,0,0-1,1,1,1,0,0,0,1,1A1.05,1.05,0,0,0,163,60.86Z"/><path class="cls-7" d="M165.62,101.26a1,1,0,0,0-1-1,1,1,0,0,0-1,1,1,1,0,0,0,1,1,1.05,1.05,0,0,0,1-1"/><path class="cls-5" d="M165.62,101.26a1,1,0,0,0-1-1,1,1,0,0,0-1,1,1,1,0,0,0,1,1A1.05,1.05,0,0,0,165.62,101.26Z"/><path class="cls-7" d="M122.15,101a1,1,0,0,0-1-1,1,1,0,0,0-1,1,1,1,0,0,0,1,1,1.05,1.05,0,0,0,1-1"/><path class="cls-5" d="M122.15,101a1,1,0,0,0-1-1,1,1,0,0,0-1,1,1,1,0,0,0,1,1A1.05,1.05,0,0,0,122.15,101Z"/><path class="cls-7" d="M201.28,71.83a1,1,0,0,0-1-1,1,1,0,0,0-1,1,1,1,0,0,0,1,1,1.05,1.05,0,0,0,1-1"/><path class="cls-5" d="M201.28,71.83a1,1,0,0,0-1-1,1,1,0,0,0-1,1,1,1,0,0,0,1,1A1.05,1.05,0,0,0,201.28,71.83Z"/><path class="cls-7" d="M128.45,24.11a1,1,0,0,0-1-1,1,1,0,0,0-1,1,1,1,0,0,0,1,1,1.05,1.05,0,0,0,1-1"/><path class="cls-5" d="M128.45,24.11a1,1,0,0,0-1-1,1,1,0,0,0-1,1,1,1,0,0,0,1,1A1.05,1.05,0,0,0,128.45,24.11Z"/><path class="cls-7" d="M141,88.19a1,1,0,0,0-1-1,1,1,0,0,0-1,1,1,1,0,0,0,1,1,1.05,1.05,0,0,0,1-1"/><path class="cls-5" d="M141,88.19a1,1,0,0,0-1-1,1,1,0,0,0-1,1,1,1,0,0,0,1,1A1.05,1.05,0,0,0,141,88.19Z"/><path class="cls-7" d="M167.54,67.33a1,1,0,0,0-1-1,1,1,0,0,0-1,1,1,1,0,0,0,1,1,1.06,1.06,0,0,0,1-1"/><path class="cls-5" d="M167.54,67.33a1,1,0,0,0-1-1,1,1,0,0,0-1,1,1,1,0,0,0,1,1A1.06,1.06,0,0,0,167.54,67.33Z"/><path class="cls-7" d="M183.18,11.58a1,1,0,0,0-1-1,1,1,0,0,0-1,1,1,1,0,0,0,1,1,1.05,1.05,0,0,0,1-1"/><path class="cls-5" d="M183.18,11.58a1,1,0,0,0-1-1,1,1,0,0,0-1,1,1,1,0,0,0,1,1A1.05,1.05,0,0,0,183.18,11.58Z"/><path class="cls-7" d="M163.34,57.32a1.15,1.15,0,0,0-1.2-1.14A1.1,1.1,0,0,0,161,57.32a1.15,1.15,0,0,0,1.14,1.2,1.2,1.2,0,0,0,1.2-1.2"/><path class="cls-5" d="M163.34,57.32a1.15,1.15,0,0,0-1.2-1.14A1.1,1.1,0,0,0,161,57.32a1.15,1.15,0,0,0,1.14,1.2A1.2,1.2,0,0,0,163.34,57.32Z"/><path class="cls-8" d="M125.75,44.67l-7.13-5.45,8.93,1.14M161,56.9,118.62,39.22"/><text class="cls-9" transform="translate(130.13 53.9)">r</text><text class="cls-10" transform="translate(133.18 56.3)">max</text><rect class="cls-2" x="223.74" y="10.14" width="95.38" height="95.14"/><rect class="cls-3" x="223.74" y="10.14" width="95.38" height="95.14"/><text class="cls-4" transform="translate(213.32 6.65)">(c)</text><path class="cls-5" d="M271.1,10a48,48,0,0,0,48,48.08m.06,47.18V10.14m-96.7,0h1.32m-1.32,23.74h1.32m-1.32,23.8h1.32m-1.32,23.8h1.32m-1.32,23.8h1.32m0,0V10.14m0,0h95.38m0,96.46v-1.32m-23.86,1.32v-1.32M271.4,106.6v-1.32m-23.86,1.32v-1.32m-23.8,1.32v-1.32m0,0h95.38"/><path class="cls-7" d="M254.08,42.57a1,1,0,0,0-1-1,1,1,0,0,0-1,1,1,1,0,0,0,1,1,1.05,1.05,0,0,0,1-1"/><path class="cls-11" d="M254.08,42.57a1,1,0,0,0-1-1,1,1,0,0,0-1,1,1,1,0,0,0,1,1A1.05,1.05,0,0,0,254.08,42.57Z"/><path class="cls-7" d="M302.64,70.33a1,1,0,0,0-1-1,1,1,0,0,0-1,1,1,1,0,0,0,1,1,1.06,1.06,0,0,0,1-1"/><path class="cls-11" d="M302.64,70.33a1,1,0,0,0-1-1,1,1,0,0,0-1,1,1,1,0,0,0,1,1A1.06,1.06,0,0,0,302.64,70.33Z"/><path class="cls-7" d="M268.94,32.26a1,1,0,0,0-1-1,1,1,0,0,0-1,1,1,1,0,0,0,1,1,1,1,0,0,0,1-1"/><path class="cls-11" d="M268.94,32.26a1,1,0,0,0-1-1,1,1,0,0,0-1,1,1,1,0,0,0,1,1A1,1,0,0,0,268.94,32.26Z"/><path class="cls-7" d="M302.81,30.52a1,1,0,0,0-1-1,1,1,0,0,0-1,1,1,1,0,0,0,1,1,1.05,1.05,0,0,0,1-1"/><path class="cls-11" d="M302.81,30.52a1,1,0,0,0-1-1,1,1,0,0,0-1,1,1,1,0,0,0,1,1A1.05,1.05,0,0,0,302.81,30.52Z"/><path class="cls-7" d="M305.87,103.36a1,1,0,0,0-1-1,1,1,0,0,0-1,1,1,1,0,0,0,1,1,1.05,1.05,0,0,0,1-1"/><path class="cls-11" d="M305.87,103.36a1,1,0,0,0-1-1,1,1,0,0,0-1,1,1,1,0,0,0,1,1A1.05,1.05,0,0,0,305.87,103.36Z"/><path class="cls-7" d="M292.68,67.15a1,1,0,0,0-1-1,1,1,0,0,0-1,1,1,1,0,0,0,1,1,1.05,1.05,0,0,0,1-1"/><path class="cls-11" d="M292.68,67.15a1,1,0,0,0-1-1,1,1,0,0,0-1,1,1,1,0,0,0,1,1A1.05,1.05,0,0,0,292.68,67.15Z"/><path class="cls-7" d="M288.55,105a1,1,0,0,0-1-1,1,1,0,0,0-1,1,1,1,0,0,0,1,1,1.05,1.05,0,0,0,1-1"/><path class="cls-11" d="M288.55,105a1,1,0,0,0-1-1,1,1,0,0,0-1,1,1,1,0,0,0,1,1A1.05,1.05,0,0,0,288.55,105Z"/><path class="cls-7" d="M291.6,75.18a1,1,0,0,0-1-1,1,1,0,0,0-1,1,1,1,0,0,0,1,1,1.05,1.05,0,0,0,1-1"/><path class="cls-11" d="M291.6,75.18a1,1,0,0,0-1-1,1,1,0,0,0-1,1,1,1,0,0,0,1,1A1.05,1.05,0,0,0,291.6,75.18Z"/><path class="cls-7" d="M291.72,30.88a1,1,0,0,0-1-1,1,1,0,0,0-1,1,1,1,0,0,0,1,1,1.05,1.05,0,0,0,1-1"/><path class="cls-11" d="M291.72,30.88a1,1,0,0,0-1-1,1,1,0,0,0-1,1,1,1,0,0,0,1,1A1.05,1.05,0,0,0,291.72,30.88Z"/><path class="cls-7" d="M304.61,96.47a1,1,0,0,0-1-1,1,1,0,0,0-1,1,1,1,0,0,0,1,1,1,1,0,0,0,1-1"/><path class="cls-11" d="M304.61,96.47a1,1,0,0,0-1-1,1,1,0,0,0-1,1,1,1,0,0,0,1,1A1,1,0,0,0,304.61,96.47Z"/><path class="cls-7" d="M274.28,62.36a1,1,0,0,0-1-1,1,1,0,0,0-1,1,1,1,0,0,0,1,1,1.05,1.05,0,0,0,1-1"/><path class="cls-11" d="M274.28,62.36a1,1,0,0,0-1-1,1,1,0,0,0-1,1,1,1,0,0,0,1,1A1.05,1.05,0,0,0,274.28,62.36Z"/><path class="cls-7" d="M240.29,61.16a1,1,0,0,0-1-1,1,1,0,0,0-1,1,1,1,0,0,0,1,1,1.05,1.05,0,0,0,1-1"/><path class="cls-11" d="M240.29,61.16a1,1,0,0,0-1-1,1,1,0,0,0-1,1,1,1,0,0,0,1,1A1.05,1.05,0,0,0,240.29,61.16Z"/><path class="cls-7" d="M245.74,44.07a1,1,0,0,0-1-1,1,1,0,0,0-.95,1,1,1,0,0,0,.95,1,1.05,1.05,0,0,0,1-1"/><path class="cls-11" d="M245.74,44.07a1,1,0,0,0-1-1,1,1,0,0,0-.95,1,1,1,0,0,0,.95,1A1.05,1.05,0,0,0,245.74,44.07Z"/><path class="cls-7" d="M262.47,19.13a1,1,0,0,0-1-1,1,1,0,0,0-1,1,1,1,0,0,0,1,1,1.05,1.05,0,0,0,1-1"/><path class="cls-11" d="M262.47,19.13a1,1,0,0,0-1-1,1,1,0,0,0-1,1,1,1,0,0,0,1,1A1.05,1.05,0,0,0,262.47,19.13Z"/><path class="cls-7" d="M300,74.46a1,1,0,0,0-1-1,1,1,0,0,0-1,1,1,1,0,0,0,1,1,1.05,1.05,0,0,0,1-1"/><path class="cls-11" d="M300,74.46a1,1,0,0,0-1-1,1,1,0,0,0-1,1,1,1,0,0,0,1,1A1.05,1.05,0,0,0,300,74.46Z"/><path class="cls-7" d="M226.92,71.17a1,1,0,0,0-1-1,1,1,0,0,0-1,1,1,1,0,0,0,1,1,1.05,1.05,0,0,0,1-1"/><path class="cls-11" d="M226.92,71.17a1,1,0,0,0-1-1,1,1,0,0,0-1,1,1,1,0,0,0,1,1A1.05,1.05,0,0,0,226.92,71.17Z"/><path class="cls-7" d="M295.86,91.85a1,1,0,0,0-1-1,1,1,0,0,0-1,1,1,1,0,0,0,1,1,1.05,1.05,0,0,0,1-1"/><path class="cls-11" d="M295.86,91.85a1,1,0,0,0-1-1,1,1,0,0,0-1,1,1,1,0,0,0,1,1A1.05,1.05,0,0,0,295.86,91.85Z"/><path class="cls-7" d="M307.37,19.37a1,1,0,0,0-1-1,1,1,0,0,0-1,1,1,1,0,0,0,1,1,1.05,1.05,0,0,0,1-1"/><path class="cls-11" d="M307.37,19.37a1,1,0,0,0-1-1,1,1,0,0,0-1,1,1,1,0,0,0,1,1A1.05,1.05,0,0,0,307.37,19.37Z"/><path class="cls-7" d="M268.34,12.24a1,1,0,0,0-1-1,1,1,0,0,0-1,1,1,1,0,0,0,1,1,1.05,1.05,0,0,0,1-1"/><path class="cls-11" d="M268.34,12.24a1,1,0,0,0-1-1,1,1,0,0,0-1,1,1,1,0,0,0,1,1A1.05,1.05,0,0,0,268.34,12.24Z"/><path class="cls-7" d="M302.15,83.94a1,1,0,0,0-1-1,1,1,0,0,0-1,1,1,1,0,0,0,1,1,1.05,1.05,0,0,0,1-1"/><path class="cls-11" d="M302.15,83.94a1,1,0,0,0-1-1,1,1,0,0,0-1,1,1,1,0,0,0,1,1A1.05,1.05,0,0,0,302.15,83.94Z"/><path class="cls-7" d="M273.86,50.85a1,1,0,0,0-1-1,1,1,0,0,0-1,1,1,1,0,0,0,1,1,1,1,0,0,0,1-1"/><path class="cls-11" d="M273.86,50.85a1,1,0,0,0-1-1,1,1,0,0,0-1,1,1,1,0,0,0,1,1A1,1,0,0,0,273.86,50.85Z"/><path class="cls-7" d="M316.6,30a1,1,0,0,0-1-1,1,1,0,0,0-1,1,1,1,0,0,0,1,1,1.05,1.05,0,0,0,1-1"/><path class="cls-11" d="M316.6,30a1,1,0,0,0-1-1,1,1,0,0,0-1,1,1,1,0,0,0,1,1A1.05,1.05,0,0,0,316.6,30Z"/><path class="cls-7" d="M258.45,72.91a1,1,0,0,0-1-1,1,1,0,0,0-1,1,1,1,0,0,0,1,1,1.05,1.05,0,0,0,1-1"/><path class="cls-11" d="M258.45,72.91a1,1,0,0,0-1-1,1,1,0,0,0-1,1,1,1,0,0,0,1,1A1.05,1.05,0,0,0,258.45,72.91Z"/><path class="cls-7" d="M254.38,10.8a1,1,0,0,0-1-1,1,1,0,0,0-1,1,1,1,0,0,0,1,1,1.05,1.05,0,0,0,1-1"/><path class="cls-11" d="M254.38,10.8a1,1,0,0,0-1-1,1,1,0,0,0-1,1,1,1,0,0,0,1,1A1.05,1.05,0,0,0,254.38,10.8Z"/><path class="cls-7" d="M225.78,30.82a1,1,0,0,0-1-1,1,1,0,0,0-1,1,1,1,0,0,0,1,1,1.05,1.05,0,0,0,1-1"/><path class="cls-11" d="M225.78,30.82a1,1,0,0,0-1-1,1,1,0,0,0-1,1,1,1,0,0,0,1,1A1.05,1.05,0,0,0,225.78,30.82Z"/><path class="cls-7" d="M283.81,17.69a1,1,0,0,0-1-1,1,1,0,0,0-1,1,1,1,0,0,0,1,1,1.05,1.05,0,0,0,1-1"/><path class="cls-11" d="M283.81,17.69a1,1,0,0,0-1-1,1,1,0,0,0-1,1,1,1,0,0,0,1,1A1.05,1.05,0,0,0,283.81,17.69Z"/><path class="cls-7" d="M310.25,89.27a1,1,0,0,0-1-1,1,1,0,0,0-1,1,1,1,0,0,0,1,1,1.05,1.05,0,0,0,1-1"/><path class="cls-11" d="M310.25,89.27a1,1,0,0,0-1-1,1,1,0,0,0-1,1,1,1,0,0,0,1,1A1.05,1.05,0,0,0,310.25,89.27Z"/><path class="cls-7" d="M227.7,80.94a1,1,0,0,0-1-1,1,1,0,0,0-1,1,1,1,0,0,0,1,1,1.05,1.05,0,0,0,1-1"/><path class="cls-11" d="M227.7,80.94a1,1,0,0,0-1-1,1,1,0,0,0-1,1,1,1,0,0,0,1,1A1.05,1.05,0,0,0,227.7,80.94Z"/><path class="cls-7" d="M270,95.15a1,1,0,0,0-1-1,1,1,0,0,0-1,1,1,1,0,0,0,1,1,1.05,1.05,0,0,0,1-1"/><path class="cls-11" d="M270,95.15a1,1,0,0,0-1-1,1,1,0,0,0-1,1,1,1,0,0,0,1,1A1.05,1.05,0,0,0,270,95.15Z"/><path class="cls-7" d="M294.9,85.44a1,1,0,0,0-1-1,1,1,0,0,0-1,1,1,1,0,0,0,1,1,1.05,1.05,0,0,0,1-1"/><path class="cls-11" d="M294.9,85.44a1,1,0,0,0-1-1,1,1,0,0,0-1,1,1,1,0,0,0,1,1A1.05,1.05,0,0,0,294.9,85.44Z"/><path class="cls-7" d="M249.52,65.53a1,1,0,0,0-1-1,1,1,0,0,0-1,1,1,1,0,0,0,1,1,1.05,1.05,0,0,0,1-1"/><path class="cls-11" d="M249.52,65.53a1,1,0,0,0-1-1,1,1,0,0,0-1,1,1,1,0,0,0,1,1A1.05,1.05,0,0,0,249.52,65.53Z"/><path class="cls-7" d="M292.08,95.63a1,1,0,0,0-1-1,1,1,0,0,0-1,1,1,1,0,0,0,1,1,1.05,1.05,0,0,0,1-1"/><path class="cls-11" d="M292.08,95.63a1,1,0,0,0-1-1,1,1,0,0,0-1,1,1,1,0,0,0,1,1A1.05,1.05,0,0,0,292.08,95.63Z"/><path class="cls-7" d="M264,78a1,1,0,0,0-1-1,1,1,0,0,0-1,1,1,1,0,0,0,1,1,1.05,1.05,0,0,0,1-1"/><path class="cls-11" d="M264,78a1,1,0,0,0-1-1,1,1,0,0,0-1,1,1,1,0,0,0,1,1A1.05,1.05,0,0,0,264,78Z"/><path class="cls-7" d="M286.09,22.31a1,1,0,0,0-1-1,1,1,0,0,0-1,1,1,1,0,0,0,1,1,1.05,1.05,0,0,0,1-1"/><path class="cls-11" d="M286.09,22.31a1,1,0,0,0-1-1,1,1,0,0,0-1,1,1,1,0,0,0,1,1A1.05,1.05,0,0,0,286.09,22.31Z"/><path class="cls-7" d="M260.43,50a1,1,0,0,0-1-1,1,1,0,0,0-1,1,1,1,0,0,0,1,1,1.05,1.05,0,0,0,1-1"/><path class="cls-11" d="M260.43,50a1,1,0,0,0-1-1,1,1,0,0,0-1,1,1,1,0,0,0,1,1A1.05,1.05,0,0,0,260.43,50Z"/><path class="cls-7" d="M265.11,29.14a1,1,0,0,0-1-1,1,1,0,0,0-1,1,1,1,0,0,0,1,1,1.05,1.05,0,0,0,1-1"/><path class="cls-11" d="M265.11,29.14a1,1,0,0,0-1-1,1,1,0,0,0-1,1,1,1,0,0,0,1,1A1.05,1.05,0,0,0,265.11,29.14Z"/><path class="cls-7" d="M292.92,77.58a1,1,0,0,0-1-1,1,1,0,0,0-1,1,1,1,0,0,0,1,1,1.05,1.05,0,0,0,1-1"/><path class="cls-11" d="M292.92,77.58a1,1,0,0,0-1-1,1,1,0,0,0-1,1,1,1,0,0,0,1,1A1.05,1.05,0,0,0,292.92,77.58Z"/><path class="cls-7" d="M286.69,103.12a1,1,0,0,0-1-1,1,1,0,0,0-1,1,1,1,0,0,0,1,1,1.05,1.05,0,0,0,1-1"/><path class="cls-11" d="M286.69,103.12a1,1,0,0,0-1-1,1,1,0,0,0-1,1,1,1,0,0,0,1,1A1.05,1.05,0,0,0,286.69,103.12Z"/><path class="cls-7" d="M281,86a1,1,0,0,0-1-1,1,1,0,0,0-1,1,1,1,0,0,0,1,1,1,1,0,0,0,1-1"/><path class="cls-11" d="M281,86a1,1,0,0,0-1-1,1,1,0,0,0-1,1,1,1,0,0,0,1,1A1,1,0,0,0,281,86Z"/><path class="cls-7" d="M286.21,38.2a1,1,0,0,0-1-1,1,1,0,0,0-1,1,1,1,0,0,0,1,1,1.05,1.05,0,0,0,1-1"/><path class="cls-11" d="M286.21,38.2a1,1,0,0,0-1-1,1,1,0,0,0-1,1,1,1,0,0,0,1,1A1.05,1.05,0,0,0,286.21,38.2Z"/><path class="cls-7" d="M249.52,68.59a1,1,0,0,0-1-1,1,1,0,0,0-1,1,1,1,0,0,0,1,1,1.05,1.05,0,0,0,1-1"/><path class="cls-11" d="M249.52,68.59a1,1,0,0,0-1-1,1,1,0,0,0-1,1,1,1,0,0,0,1,1A1.05,1.05,0,0,0,249.52,68.59Z"/><path class="cls-7" d="M284.05,58.58a1,1,0,0,0-1-1,1,1,0,0,0-1,1,1,1,0,0,0,1,1,1.05,1.05,0,0,0,1-1"/><path class="cls-11" d="M284.05,58.58a1,1,0,0,0-1-1,1,1,0,0,0-1,1,1,1,0,0,0,1,1A1.05,1.05,0,0,0,284.05,58.58Z"/><path class="cls-7" d="M285.13,14.46a1,1,0,0,0-1-1,1,1,0,0,0-1,1,1,1,0,0,0,1,1,1.05,1.05,0,0,0,1-1"/><path class="cls-11" d="M285.13,14.46a1,1,0,0,0-1-1,1,1,0,0,0-1,1,1,1,0,0,0,1,1A1.05,1.05,0,0,0,285.13,14.46Z"/><path class="cls-7" d="M238.67,87.29a1,1,0,0,0-1-1,1,1,0,0,0-1,1,1,1,0,0,0,1,1,1.05,1.05,0,0,0,1-1"/><path class="cls-11" d="M238.67,87.29a1,1,0,0,0-1-1,1,1,0,0,0-1,1,1,1,0,0,0,1,1A1.05,1.05,0,0,0,238.67,87.29Z"/><path class="cls-7" d="M286.39,70.33a1,1,0,0,0-1-1,1,1,0,0,0-1,1,1,1,0,0,0,1,1,1.05,1.05,0,0,0,1-1"/><path class="cls-11" d="M286.39,70.33a1,1,0,0,0-1-1,1,1,0,0,0-1,1,1,1,0,0,0,1,1A1.05,1.05,0,0,0,286.39,70.33Z"/><path class="cls-7" d="M269.36,31.3a1,1,0,0,0-1-1,1,1,0,0,0-1,1,1,1,0,0,0,1,1,1.05,1.05,0,0,0,1-1"/><path class="cls-11" d="M269.36,31.3a1,1,0,0,0-1-1,1,1,0,0,0-1,1,1,1,0,0,0,1,1A1.05,1.05,0,0,0,269.36,31.3Z"/><path class="cls-7" d="M269.12,92.51a1,1,0,0,0-1-1,1,1,0,0,0-1,1,1,1,0,0,0,1,1,1.05,1.05,0,0,0,1-1"/><path class="cls-11" d="M269.12,92.51a1,1,0,0,0-1-1,1,1,0,0,0-1,1,1,1,0,0,0,1,1A1.05,1.05,0,0,0,269.12,92.51Z"/><path class="cls-7" d="M225.42,101.32a1,1,0,0,0-1-1,1,1,0,0,0-1,1,1,1,0,0,0,1,1,1.05,1.05,0,0,0,1-1"/><path class="cls-11" d="M225.42,101.32a1,1,0,0,0-1-1,1,1,0,0,0-1,1,1,1,0,0,0,1,1A1.05,1.05,0,0,0,225.42,101.32Z"/><path class="cls-7" d="M287.89,44.25a1,1,0,0,0-1-1,1,1,0,0,0-1,1,1,1,0,0,0,1,1,1.05,1.05,0,0,0,1-1"/><path class="cls-11" d="M287.89,44.25a1,1,0,0,0-1-1,1,1,0,0,0-1,1,1,1,0,0,0,1,1A1.05,1.05,0,0,0,287.89,44.25Z"/><path class="cls-7" d="M271.52,32.38a1,1,0,0,0-1-1,1,1,0,0,0-1,1,1,1,0,0,0,1,1,1.05,1.05,0,0,0,1-1"/><path class="cls-11" d="M271.52,32.38a1,1,0,0,0-1-1,1,1,0,0,0-1,1,1,1,0,0,0,1,1A1.05,1.05,0,0,0,271.52,32.38Z"/><path class="cls-7" d="M313.78,96.41a1,1,0,0,0-1-1,1,1,0,0,0-1,1,1,1,0,0,0,1,1,1.05,1.05,0,0,0,1-1"/><path class="cls-11" d="M313.78,96.41a1,1,0,0,0-1-1,1,1,0,0,0-1,1,1,1,0,0,0,1,1A1.05,1.05,0,0,0,313.78,96.41Z"/><path class="cls-7" d="M307,75a1,1,0,0,0-1-1,1,1,0,0,0-1,1,1,1,0,0,0,1,1,1,1,0,0,0,1-1"/><path class="cls-11" d="M307,75a1,1,0,0,0-1-1,1,1,0,0,0-1,1,1,1,0,0,0,1,1A1,1,0,0,0,307,75Z"/><path class="cls-7" d="M308,13.26a1,1,0,0,0-1-1,1,1,0,0,0-1,1,1,1,0,0,0,1,1,1.05,1.05,0,0,0,1-1"/><path class="cls-11" d="M308,13.26a1,1,0,0,0-1-1,1,1,0,0,0-1,1,1,1,0,0,0,1,1A1.05,1.05,0,0,0,308,13.26Z"/><path class="cls-7" d="M318.22,74a1,1,0,0,0-1-1,1,1,0,0,0-1,1,1,1,0,0,0,1,1,1.05,1.05,0,0,0,1-1"/><path class="cls-11" d="M318.22,74a1,1,0,0,0-1-1,1,1,0,0,0-1,1,1,1,0,0,0,1,1A1.05,1.05,0,0,0,318.22,74Z"/><path class="cls-7" d="M243.71,28.25a1,1,0,0,0-1-1,1,1,0,0,0-1,1,1,1,0,0,0,1,1,1,1,0,0,0,1-1"/><path class="cls-11" d="M243.71,28.25a1,1,0,0,0-1-1,1,1,0,0,0-1,1,1,1,0,0,0,1,1A1,1,0,0,0,243.71,28.25Z"/><path class="cls-7" d="M242.15,104.92a1,1,0,0,0-1-1,1,1,0,0,0-1,1,1,1,0,0,0,1,1,1.05,1.05,0,0,0,1-1"/><path class="cls-11" d="M242.15,104.92a1,1,0,0,0-1-1,1,1,0,0,0-1,1,1,1,0,0,0,1,1A1.05,1.05,0,0,0,242.15,104.92Z"/><path class="cls-7" d="M270.2,82a1,1,0,0,0-1-1,1,1,0,0,0-1,1,1,1,0,0,0,1,1,1.05,1.05,0,0,0,1-1"/><path class="cls-11" d="M270.2,82a1,1,0,0,0-1-1,1,1,0,0,0-1,1,1,1,0,0,0,1,1A1.05,1.05,0,0,0,270.2,82Z"/><path class="cls-7" d="M249.7,11a1,1,0,0,0-1-1,1,1,0,0,0-1,1,1,1,0,0,0,1,1,1.05,1.05,0,0,0,1-1"/><path class="cls-11" d="M249.7,11a1,1,0,0,0-1-1,1,1,0,0,0-1,1,1,1,0,0,0,1,1A1.05,1.05,0,0,0,249.7,11Z"/><path class="cls-7" d="M303.35,34.24a1,1,0,0,0-1-1,1,1,0,0,0-.95,1,1,1,0,0,0,.95,1,1.05,1.05,0,0,0,1-1"/><path class="cls-11" d="M303.35,34.24a1,1,0,0,0-1-1,1,1,0,0,0-.95,1,1,1,0,0,0,.95,1A1.05,1.05,0,0,0,303.35,34.24Z"/><path class="cls-7" d="M308.21,50.85a1,1,0,0,0-1-1,1,1,0,0,0-1,1,1,1,0,0,0,1,1,1,1,0,0,0,1-1"/><path class="cls-11" d="M308.21,50.85a1,1,0,0,0-1-1,1,1,0,0,0-1,1,1,1,0,0,0,1,1A1,1,0,0,0,308.21,50.85Z"/><path class="cls-7" d="M243.41,104.38a1,1,0,0,0-1-1,1,1,0,0,0-.95,1,1,1,0,0,0,.95,1,1.05,1.05,0,0,0,1-1"/><path class="cls-11" d="M243.41,104.38a1,1,0,0,0-1-1,1,1,0,0,0-.95,1,1,1,0,0,0,.95,1A1.05,1.05,0,0,0,243.41,104.38Z"/><path class="cls-7" d="M236.63,97.9a1,1,0,0,0-1-1,1,1,0,0,0-1,1,1,1,0,0,0,1,1,1.05,1.05,0,0,0,1-1"/><path class="cls-11" d="M236.63,97.9a1,1,0,0,0-1-1,1,1,0,0,0-1,1,1,1,0,0,0,1,1A1.05,1.05,0,0,0,236.63,97.9Z"/><path class="cls-7" d="M235,63.19a1,1,0,0,0-1-.95,1,1,0,0,0-1,.95,1,1,0,0,0,1,1,1.05,1.05,0,0,0,1-1"/><path class="cls-11" d="M235,63.19a1,1,0,0,0-1-.95,1,1,0,0,0-1,.95,1,1,0,0,0,1,1A1.05,1.05,0,0,0,235,63.19Z"/><path class="cls-7" d="M318,67.27a1,1,0,0,0-1-1,1,1,0,0,0-1,1,1,1,0,0,0,1,1,1.05,1.05,0,0,0,1-1"/><path class="cls-11" d="M318,67.27a1,1,0,0,0-1-1,1,1,0,0,0-1,1,1,1,0,0,0,1,1A1.05,1.05,0,0,0,318,67.27Z"/><path class="cls-7" d="M284.83,64.46a1,1,0,0,0-1-1,1,1,0,0,0-1,1,1,1,0,0,0,1,1,1,1,0,0,0,1-1"/><path class="cls-11" d="M284.83,64.46a1,1,0,0,0-1-1,1,1,0,0,0-1,1,1,1,0,0,0,1,1A1,1,0,0,0,284.83,64.46Z"/><path class="cls-7" d="M283.45,64.57a1,1,0,0,0-1-1,1,1,0,0,0-1,1,1,1,0,0,0,1,1,1.05,1.05,0,0,0,1-1"/><path class="cls-11" d="M283.45,64.57a1,1,0,0,0-1-1,1,1,0,0,0-1,1,1,1,0,0,0,1,1A1.05,1.05,0,0,0,283.45,64.57Z"/><path class="cls-7" d="M282.37,42.33a1,1,0,0,0-1-1,1,1,0,0,0-1,1,1,1,0,0,0,1,1,1.05,1.05,0,0,0,1-1"/><path class="cls-11" d="M282.37,42.33a1,1,0,0,0-1-1,1,1,0,0,0-1,1,1,1,0,0,0,1,1A1.05,1.05,0,0,0,282.37,42.33Z"/><path class="cls-7" d="M285.79,28.73a1,1,0,0,0-1-1,1,1,0,0,0-1,1,1,1,0,0,0,1,1,1.05,1.05,0,0,0,1-1"/><path class="cls-11" d="M285.79,28.73a1,1,0,0,0-1-1,1,1,0,0,0-1,1,1,1,0,0,0,1,1A1.05,1.05,0,0,0,285.79,28.73Z"/><path class="cls-7" d="M283.51,64.46a1,1,0,0,0-1-1,1,1,0,0,0-1,1,1,1,0,0,0,1,1,1,1,0,0,0,1-1"/><path class="cls-11" d="M283.51,64.46a1,1,0,0,0-1-1,1,1,0,0,0-1,1,1,1,0,0,0,1,1A1,1,0,0,0,283.51,64.46Z"/><path class="cls-7" d="M237.59,32.14a1,1,0,0,0-1-1,1,1,0,0,0-1,1,1,1,0,0,0,1,1,1.05,1.05,0,0,0,1-1"/><path class="cls-11" d="M237.59,32.14a1,1,0,0,0-1-1,1,1,0,0,0-1,1,1,1,0,0,0,1,1A1.05,1.05,0,0,0,237.59,32.14Z"/><path class="cls-7" d="M295.44,105.1a1,1,0,0,0-1-1,1,1,0,0,0-1,1,1,1,0,0,0,1,1,1.05,1.05,0,0,0,1-1"/><path class="cls-11" d="M295.44,105.1a1,1,0,0,0-1-1,1,1,0,0,0-1,1,1,1,0,0,0,1,1A1.05,1.05,0,0,0,295.44,105.1Z"/><path class="cls-7" d="M262.53,104.8a1,1,0,0,0-1-1,1,1,0,0,0-1,1,1,1,0,0,0,1,1,1.05,1.05,0,0,0,1-1"/><path class="cls-11" d="M262.53,104.8a1,1,0,0,0-1-1,1,1,0,0,0-1,1,1,1,0,0,0,1,1A1.05,1.05,0,0,0,262.53,104.8Z"/><path class="cls-7" d="M262.29,63.85a1,1,0,0,0-1-1,1,1,0,0,0-1,1,1,1,0,0,0,1,1,1.05,1.05,0,0,0,1-1"/><path class="cls-11" d="M262.29,63.85a1,1,0,0,0-1-1,1,1,0,0,0-1,1,1,1,0,0,0,1,1A1.05,1.05,0,0,0,262.29,63.85Z"/><path class="cls-7" d="M228.9,25a1,1,0,0,0-1-1,1,1,0,0,0-1,1,1,1,0,0,0,1,1,1.05,1.05,0,0,0,1-1"/><path class="cls-11" d="M228.9,25a1,1,0,0,0-1-1,1,1,0,0,0-1,1,1,1,0,0,0,1,1A1.05,1.05,0,0,0,228.9,25Z"/><path class="cls-7" d="M253.9,41.37a1,1,0,0,0-1-1,1,1,0,0,0-1,1,1,1,0,0,0,1,1,1.05,1.05,0,0,0,1-1"/><path class="cls-11" d="M253.9,41.37a1,1,0,0,0-1-1,1,1,0,0,0-1,1,1,1,0,0,0,1,1A1.05,1.05,0,0,0,253.9,41.37Z"/><path class="cls-7" d="M271.22,27.53a1,1,0,0,0-1-1,1,1,0,0,0-1,1,1,1,0,0,0,1,1,1.05,1.05,0,0,0,1-1"/><path class="cls-11" d="M271.22,27.53a1,1,0,0,0-1-1,1,1,0,0,0-1,1,1,1,0,0,0,1,1A1.05,1.05,0,0,0,271.22,27.53Z"/><path class="cls-7" d="M302.1,16.08a1,1,0,0,0-1-1,1,1,0,0,0-1,1,1,1,0,0,0,1,1,1.07,1.07,0,0,0,1-1"/><path class="cls-11" d="M302.1,16.08a1,1,0,0,0-1-1,1,1,0,0,0-1,1,1,1,0,0,0,1,1A1.07,1.07,0,0,0,302.1,16.08Z"/><path class="cls-7" d="M317.2,102.4a1,1,0,0,0-1-1,1,1,0,0,0-1,1,1,1,0,0,0,1,1,1.05,1.05,0,0,0,1-1"/><path class="cls-11" d="M317.2,102.4a1,1,0,0,0-1-1,1,1,0,0,0-1,1,1,1,0,0,0,1,1A1.05,1.05,0,0,0,317.2,102.4Z"/><path class="cls-7" d="M257.85,12.66a1,1,0,0,0-1-1,1,1,0,0,0-1,1,1,1,0,0,0,1,1,1.05,1.05,0,0,0,1-1"/><path class="cls-11" d="M257.85,12.66a1,1,0,0,0-1-1,1,1,0,0,0-1,1,1,1,0,0,0,1,1A1.05,1.05,0,0,0,257.85,12.66Z"/><path class="cls-7" d="M260.49,85.2a1,1,0,0,0-1-1,1,1,0,0,0-1,1,1,1,0,0,0,1,1,1.05,1.05,0,0,0,1-1"/><path class="cls-11" d="M260.49,85.2a1,1,0,0,0-1-1,1,1,0,0,0-1,1,1,1,0,0,0,1,1A1.05,1.05,0,0,0,260.49,85.2Z"/><path class="cls-7" d="M264.21,50.85a1,1,0,0,0-1-1,1,1,0,0,0-1,1,1,1,0,0,0,1,1,1,1,0,0,0,1-1"/><path class="cls-11" d="M264.21,50.85a1,1,0,0,0-1-1,1,1,0,0,0-1,1,1,1,0,0,0,1,1A1,1,0,0,0,264.21,50.85Z"/><path class="cls-7" d="M270.86,69.67a1,1,0,0,0-1-1,1,1,0,0,0-1,1,1,1,0,0,0,1,1,1.05,1.05,0,0,0,1-1"/><path class="cls-11" d="M270.86,69.67a1,1,0,0,0-1-1,1,1,0,0,0-1,1,1,1,0,0,0,1,1A1.05,1.05,0,0,0,270.86,69.67Z"/><path class="cls-7" d="M305.27,92.15a1,1,0,0,0-1-1,1,1,0,0,0-1,1,1,1,0,0,0,1,1,1.05,1.05,0,0,0,1-1"/><path class="cls-11" d="M305.27,92.15a1,1,0,0,0-1-1,1,1,0,0,0-1,1,1,1,0,0,0,1,1A1.05,1.05,0,0,0,305.27,92.15Z"/><path class="cls-7" d="M284.41,30.4a1,1,0,0,0-1-1,1,1,0,0,0-1,1,1,1,0,0,0,1,1,1.05,1.05,0,0,0,1-1"/><path class="cls-11" d="M284.41,30.4a1,1,0,0,0-1-1,1,1,0,0,0-1,1,1,1,0,0,0,1,1A1.05,1.05,0,0,0,284.41,30.4Z"/><path class="cls-7" d="M272.84,98.21a1,1,0,0,0-1-1,1,1,0,0,0-1,1,1,1,0,0,0,1,1,1.06,1.06,0,0,0,1-1"/><path class="cls-11" d="M272.84,98.21a1,1,0,0,0-1-1,1,1,0,0,0-1,1,1,1,0,0,0,1,1A1.06,1.06,0,0,0,272.84,98.21Z"/><path class="cls-7" d="M254.8,59.6a1,1,0,0,0-1-1,1,1,0,0,0-1,1,1,1,0,0,0,1,1,1.05,1.05,0,0,0,1-1"/><circle class="cls-11" cx="253.78" cy="59.6" r="1.02"/><path class="cls-7" d="M235.31,73.27a1,1,0,0,0-1-1,1,1,0,0,0-1,1,1,1,0,0,0,1,1,1.05,1.05,0,0,0,1-1"/><path class="cls-11" d="M235.31,73.27a1,1,0,0,0-1-1,1,1,0,0,0-1,1,1,1,0,0,0,1,1A1.05,1.05,0,0,0,235.31,73.27Z"/><path class="cls-7" d="M255.57,60.74a1,1,0,0,0-1-1,1,1,0,0,0-1,1,1,1,0,0,0,1,1,1,1,0,0,0,1-1"/><path class="cls-11" d="M255.57,60.74a1,1,0,0,0-1-1,1,1,0,0,0-1,1,1,1,0,0,0,1,1A1,1,0,0,0,255.57,60.74Z"/><path class="cls-7" d="M319.06,22.31a1,1,0,0,0-1-1,1,1,0,0,0-1,1,1,1,0,0,0,1,1,1.05,1.05,0,0,0,1-1"/><path class="cls-11" d="M319.06,22.31a1,1,0,0,0-1-1,1,1,0,0,0-1,1,1,1,0,0,0,1,1A1.05,1.05,0,0,0,319.06,22.31Z"/><path class="cls-7" d="M318.34,76.5a1,1,0,0,0-1-1,1,1,0,0,0-1,1,1,1,0,0,0,1,1,1.05,1.05,0,0,0,1-1"/><path class="cls-11" d="M318.34,76.5a1,1,0,0,0-1-1,1,1,0,0,0-1,1,1,1,0,0,0,1,1A1.05,1.05,0,0,0,318.34,76.5Z"/><path class="cls-7" d="M293.94,39a1,1,0,0,0-1-1,1,1,0,0,0-1,1,1,1,0,0,0,1,1,1,1,0,0,0,1-1"/><path class="cls-11" d="M293.94,39a1,1,0,0,0-1-1,1,1,0,0,0-1,1,1,1,0,0,0,1,1A1,1,0,0,0,293.94,39Z"/><path class="cls-7" d="M290.82,65.83a1,1,0,0,0-1-1,1,1,0,0,0-1,1,1,1,0,0,0,1,1,1.05,1.05,0,0,0,1-1"/><path class="cls-11" d="M290.82,65.83a1,1,0,0,0-1-1,1,1,0,0,0-1,1,1,1,0,0,0,1,1A1.05,1.05,0,0,0,290.82,65.83Z"/><path class="cls-7" d="M272.24,61.16a1,1,0,0,0-1-1,1,1,0,0,0-1,1,1,1,0,0,0,1,1,1.05,1.05,0,0,0,1-1"/><path class="cls-11" d="M272.24,61.16a1,1,0,0,0-1-1,1,1,0,0,0-1,1,1,1,0,0,0,1,1A1.05,1.05,0,0,0,272.24,61.16Z"/><path class="cls-7" d="M274.88,101.8a1,1,0,0,0-1-1,1,1,0,0,0-1,1,1,1,0,0,0,1,1,1.05,1.05,0,0,0,1-1"/><path class="cls-11" d="M274.88,101.8a1,1,0,0,0-1-1,1,1,0,0,0-1,1,1,1,0,0,0,1,1A1.05,1.05,0,0,0,274.88,101.8Z"/><path class="cls-7" d="M231,101.56a1,1,0,0,0-1-1,1,1,0,0,0-1,1,1,1,0,0,0,1,1,1.05,1.05,0,0,0,1-1"/><path class="cls-11" d="M231,101.56a1,1,0,0,0-1-1,1,1,0,0,0-1,1,1,1,0,0,0,1,1A1.05,1.05,0,0,0,231,101.56Z"/><path class="cls-7" d="M310.85,72.13a1,1,0,0,0-1-1,1,1,0,0,0-1,1,1,1,0,0,0,1,1,1.05,1.05,0,0,0,1-1"/><path class="cls-11" d="M310.85,72.13a1,1,0,0,0-1-1,1,1,0,0,0-1,1,1,1,0,0,0,1,1A1.05,1.05,0,0,0,310.85,72.13Z"/><path class="cls-7" d="M237.35,24.23a1,1,0,0,0-1-1,1,1,0,0,0-1,1,1,1,0,0,0,1,1,1.05,1.05,0,0,0,1-1"/><path class="cls-11" d="M237.35,24.23a1,1,0,0,0-1-1,1,1,0,0,0-1,1,1,1,0,0,0,1,1A1.05,1.05,0,0,0,237.35,24.23Z"/><path class="cls-7" d="M250.06,88.61a1,1,0,0,0-1-1,1,1,0,0,0-1,1,1,1,0,0,0,1,1,1.05,1.05,0,0,0,1-1"/><path class="cls-11" d="M250.06,88.61a1,1,0,0,0-1-1,1,1,0,0,0-1,1,1,1,0,0,0,1,1A1.05,1.05,0,0,0,250.06,88.61Z"/><path class="cls-7" d="M276.86,67.69a1,1,0,0,0-1-1,1,1,0,0,0-1,1,1,1,0,0,0,1,1,1.05,1.05,0,0,0,1-1"/><path class="cls-11" d="M276.86,67.69a1,1,0,0,0-1-1,1,1,0,0,0-1,1,1,1,0,0,0,1,1A1.05,1.05,0,0,0,276.86,67.69Z"/><path class="cls-7" d="M292.62,11.58a1,1,0,0,0-1-1,1,1,0,0,0-1,1,1,1,0,0,0,1,1,1.05,1.05,0,0,0,1-1"/><path class="cls-11" d="M292.62,11.58a1,1,0,0,0-1-1,1,1,0,0,0-1,1,1,1,0,0,0,1,1A1.05,1.05,0,0,0,292.62,11.58Z"/><path class="cls-7" d="M320.26,10a1.15,1.15,0,0,0-1.2-1.14A1.1,1.1,0,0,0,317.92,10a1.15,1.15,0,0,0,1.14,1.2,1.2,1.2,0,0,0,1.2-1.2"/><g class="cls-12"><path class="cls-5" d="M298,43.41l-7,5.7,3.24-8.4m24.52-30L290.94,49.11M320.26,10a1.15,1.15,0,0,0-1.2-1.14A1.1,1.1,0,0,0,317.92,10a1.15,1.15,0,0,0,1.14,1.2A1.2,1.2,0,0,0,320.26,10Z"/></g><text class="cls-9" transform="translate(300.18 44.85)">r</text><text class="cls-10" transform="translate(303.23 47.25)">max</text></g></g></svg>